<?xml version="1.0" encoding="utf-8"?>
<!-- Generator: $$$/GeneralStr/196=Adobe Illustrator 27.6.0, SVG Export Plug-In . SVG Version: 6.00 Build 0)  -->
<svg version="1.1" id="Calque_1" xmlns="http://www.w3.org/2000/svg" xmlns:xlink="http://www.w3.org/1999/xlink" x="0px" y="0px"
	 viewBox="0 0 160 173" style="enable-background:new 0 0 160 173;" xml:space="preserve">
<style type="text/css">
	.st0{fill:#8CB4D3;}
	.st1{fill:#FFFFFF;}
	.st2{fill:#7792B1;}
	.st3{fill:#A4DBF8;}
	.st4{fill:#1D1D1B;}
	.st5{fill:#606F8F;}
	.st6{fill:#4D5271;}
	.st7{fill:#393551;}
	.st8{fill:#281B35;}
	.st9{fill:none;stroke:#A5DBF8;stroke-width:1.42;stroke-miterlimit:10.0001;}
	.st10{fill:none;stroke:#1D1D1B;stroke-width:0.99;stroke-miterlimit:4;}
</style>
<g>
	<path class="st0" d="M12.6,82.9h33.1c2.9,0,5.3-2.4,5.3-5.3l0,0c0-2.9-2.4-5.3-5.3-5.3H12.6V82.9z"/>
	<path class="st1" d="M15.8,74.5h3.1c0.8-0.1,1.6,0.5,1.6,1.4c0,0.1,0,0.2,0,0.2c0,1-0.5,1.3-1.2,1.3v0.1c0.8,0,1.4,0.6,1.4,1.4
		c0,0,0,0.1,0,0.1c0.1,0.9-0.7,1.7-1.6,1.8c0,0,0,0,0,0h-3.3V74.5z M17.2,77h1.4c0.3,0,0.6-0.2,0.6-0.5c0,0,0-0.1,0-0.1v-0.3
		c0-0.3-0.2-0.5-0.5-0.6c0,0-0.1,0-0.1,0h-1.4V77z M17.2,79.6h1.6c0.3,0,0.5-0.2,0.6-0.5c0,0,0-0.1,0-0.1v-0.3
		c0-0.3-0.2-0.5-0.5-0.6c0,0-0.1,0-0.1,0h-1.6V79.6z"/>
	<path class="st2" d="M12.6,94.9H54c2.9,0,5.2-2.4,5.2-5.3l0,0c0-2.9-2.3-5.3-5.2-5.3H12.6V94.9z"/>
	<path class="st1" d="M15.9,89.7c0-2.1,1.1-3.3,2.8-3.3c1-0.1,2,0.5,2.4,1.5l-1.2,0.6c-0.1-0.5-0.6-0.9-1.2-0.9
		c-0.8,0-1.3,0.5-1.3,1.5v1c0,1,0.5,1.5,1.3,1.5c0.6,0,1.1-0.4,1.3-0.9l1.1,0.7c-0.4,0.9-1.3,1.5-2.4,1.5
		C17,92.9,15.9,91.8,15.9,89.7z"/>
	<path class="st3" d="M13.1,70.4V50.9h15c5.4,0,9.7,4.4,9.7,9.7c0,5.4-4.4,9.7-9.7,9.7H13.1z"/>
	<path class="st4" d="M28.1,51.4c5.1,0,9.2,4.1,9.2,9.2c0,5.1-4.1,9.2-9.2,9.2H13.6V51.4H28.1 M28.1,50.4H12.6v20.4h15.5
		c5.6,0,10.2-4.6,10.2-10.2c0,0,0,0,0,0l0,0C38.3,55,33.7,50.4,28.1,50.4L28.1,50.4z"/>
	<path class="st5" d="M12.6,107h49.7c2.9,0,5.3-2.4,5.3-5.3c0,0,0,0,0,0l0,0c0-2.9-2.3-5.3-5.2-5.3c0,0,0,0,0,0H12.6V107z"/>
	<path class="st1" d="M16,98.5h2.4c1.7,0,2.8,1,2.8,3.1c0,2.1-1.1,3.1-2.8,3.1H16V98.5z M18.3,103.6c0.8,0,1.3-0.4,1.3-1.4v-1
		c0-1-0.5-1.4-1.3-1.4h-1v3.9L18.3,103.6z"/>
	<path class="st6" d="M12.6,119h57.9c2.9,0,5.3-2.3,5.3-5.3c0,0,0,0,0,0l0,0c0-2.9-2.4-5.3-5.3-5.3H12.6V119z"/>
	<path class="st1" d="M16.4,116.9v-6.3h4.3v1.2h-2.9v1.3h2.5v1.2h-2.5v1.4h2.9v1.2L16.4,116.9z"/>
	<path class="st7" d="M12.6,131h66.1c2.9,0,5.3-2.4,5.3-5.3l0,0c0-2.9-2.3-5.3-5.3-5.3c0,0,0,0,0,0H12.6V131z"/>
	<path class="st1" d="M16.5,128.9v-6.3h4.2v1.2h-2.8v1.3h2.4v1.2h-2.4v2.6L16.5,128.9z"/>
	<path class="st8" d="M12.6,143.1H87c2.9,0,5.3-2.4,5.3-5.3l0,0c0-2.9-2.3-5.3-5.3-5.3c0,0,0,0,0,0H12.6V143.1z"/>
	<path class="st1" d="M19.8,139.9L19.8,139.9c-0.1,0.6-0.7,1.1-1.6,1.1c-1.4,0-2.6-1.1-2.6-3.2c0-2.1,1.2-3.3,2.9-3.3
		c1-0.1,2,0.5,2.4,1.5l-1.1,0.6c-0.2-0.6-0.7-0.9-1.3-0.9c-0.9,0-1.4,0.5-1.4,1.5v1c0,1.1,0.6,1.5,1.4,1.5c0.7,0,1.2-0.3,1.2-0.9
		v-0.3h-1.2v-1.1H21v3.5h-1.2V139.9z"/>
	<path class="st1" d="M25.7,67.5c-0.2,0-0.4-0.1-0.5-0.3l-0.8-2.6H21l-0.8,2.6c-0.1,0.2-0.3,0.4-0.5,0.3h-2.8
		c-0.3,0-0.5-0.2-0.5-0.5c0-0.1,0-0.1,0-0.2l4.1-12.5c0.1-0.2,0.3-0.3,0.5-0.3h3.4c0.2,0,0.4,0.1,0.5,0.3L29,66.9
		c0.1,0.2,0,0.3-0.1,0.4c-0.1,0.1-0.2,0.2-0.4,0.2L25.7,67.5z M23.5,61.2l-0.8-2.7l-0.8,2.7H23.5z"/>
	<path class="st4" d="M24.4,54.5L28.5,67h-2.8l-0.9-3h-4.2l-0.9,3h-2.8l4.1-12.6H24.4 M21.3,61.7h2.9l-1.4-4.8h-0.1L21.3,61.7
		 M24.5,53.5h-3.4c-0.4,0-0.8,0.3-0.9,0.7L16,66.7c-0.1,0.3,0,0.6,0.1,0.9c0.2,0.3,0.5,0.4,0.8,0.4h2.8c0.5,0,0.9-0.3,1-0.7l0.7-2.3
		h2.7l0.6,2.3c0.1,0.4,0.5,0.7,1,0.7h2.8c0.3,0,0.6-0.2,0.8-0.4c0.2-0.3,0.2-0.6,0.1-0.9l-4.1-12.6C25.3,53.7,24.8,53.5,24.5,53.5
		L24.5,53.5z M22.6,60.7l0.1-0.4l0.1,0.4H22.6z"/>
	<path class="st9" d="M7.7,1.5h144.7c3.1,0,5.7,2.5,5.7,5.7v158.7c0,3.1-2.5,5.7-5.7,5.7H7.7c-3.1,0-5.7-2.5-5.7-5.7V7.2
		C2,4,4.5,1.5,7.7,1.5z"/>
	<line class="st10" x1="40.1" y1="60.7" x2="61.3" y2="60.7"/>
</g>
</svg>
