<?xml version="1.0" encoding="utf-8"?>
<!-- Generator: $$$/GeneralStr/196=Adobe Illustrator 27.6.0, SVG Export Plug-In . SVG Version: 6.00 Build 0)  -->
<svg version="1.1" id="Calque_1" xmlns="http://www.w3.org/2000/svg" xmlns:xlink="http://www.w3.org/1999/xlink" x="0px" y="0px"
	 viewBox="0 0 160 173" style="enable-background:new 0 0 160 173;" xml:space="preserve">
<style type="text/css">
	.st0{fill:#A4DBF8;}
	.st1{fill:#FFFFFF;}
	.st2{fill:#7792B1;}
	.st3{fill:#8CB4D3;}
	.st4{fill:#1D1D1B;}
	.st5{fill:#606F8F;}
	.st6{fill:#4D5271;}
	.st7{fill:#393551;}
	.st8{fill:#281B35;}
	.st9{fill:none;stroke:#A5DBF8;stroke-width:1.42;stroke-miterlimit:10.0001;}
	.st10{fill:none;stroke:#1D1D1B;stroke-width:0.99;stroke-miterlimit:4;}
</style>
<g>
	<path class="st0" d="M12.6,61h17.9c2.9,0,5.3-2.3,5.3-5.3c0,0,0,0,0,0l0,0c0-2.9-2.4-5.3-5.3-5.3c0,0,0,0,0,0H12.6V61z"/>
	<path class="st1" d="M19.9,58.9l-0.5-1.5h-2.1l-0.5,1.5h-1.4l2.1-6.3h1.7l2,6.3H19.9z M18.4,53.9L18.4,53.9l-0.7,2.4h1.4L18.4,53.9
		z"/>
	<path class="st2" d="M12.6,94.9H54c2.9,0,5.3-2.4,5.3-5.3c0,0,0,0,0,0l0,0c0-2.9-2.3-5.3-5.3-5.3c0,0,0,0,0,0H12.6V94.9z"/>
	<path class="st1" d="M15.9,89.7c0-2.1,1.1-3.3,2.8-3.3c1-0.1,2,0.5,2.4,1.5l-1.2,0.6c-0.1-0.5-0.6-0.9-1.2-0.9
		c-0.8,0-1.3,0.5-1.3,1.5v1c0,1,0.5,1.5,1.3,1.5c0.6,0,1.1-0.4,1.3-0.9l1.1,0.7c-0.4,0.9-1.3,1.5-2.4,1.5
		C17,92.9,15.9,91.8,15.9,89.7z"/>
	<path class="st3" d="M13.1,82.4V63h23.2c5.4-0.3,9.9,3.8,10.2,9.2c0.3,5.4-3.8,9.9-9.2,10.2c-0.4,0-0.7,0-1.1,0H13.1z"/>
	<path class="st4" d="M36.3,63.5c5.1,0,9.2,4.1,9.2,9.2s-4.1,9.2-9.2,9.2c0,0,0,0,0,0H13.6V63.5H36.3 M36.3,62.5H12.6v20.4h23.7
		c5.6,0,10.2-4.6,10.2-10.2l0,0C46.5,67,41.9,62.5,36.3,62.5z"/>
	<path class="st5" d="M12.6,107h49.6c2.9,0,5.3-2.3,5.3-5.3c0,0,0,0,0,0l0,0c0-2.9-2.3-5.3-5.2-5.3c0,0,0,0,0,0H12.6V107z"/>
	<path class="st1" d="M16,98.5h2.4c1.7,0,2.8,1,2.8,3.1c0,2.1-1.1,3.1-2.8,3.1H16V98.5z M18.3,103.6c0.8,0,1.3-0.4,1.3-1.4v-1
		c0-1-0.5-1.4-1.3-1.4h-1v3.9L18.3,103.6z"/>
	<path class="st6" d="M12.6,119h57.9c2.9,0,5.3-2.4,5.3-5.3l0,0c0-2.9-2.4-5.3-5.3-5.3H12.6V119z"/>
	<path class="st1" d="M16.4,116.9v-6.3h4.3v1.2h-2.9v1.3h2.5v1.2h-2.5v1.4h2.9v1.2L16.4,116.9z"/>
	<path class="st7" d="M12.6,131h66.1c2.9,0,5.3-2.4,5.3-5.3l0,0c0-2.9-2.3-5.3-5.3-5.3c0,0,0,0,0,0H12.6V131z"/>
	<path class="st1" d="M16.5,128.9v-6.3h4.2v1.2h-2.8v1.3h2.4v1.2h-2.4v2.6L16.5,128.9z"/>
	<path class="st8" d="M12.6,143.1h74.4c2.9,0,5.3-2.4,5.3-5.3l0,0c0-2.9-2.3-5.3-5.3-5.3c0,0,0,0,0,0H12.6V143.1z"/>
	<path class="st1" d="M19.9,139.9L19.9,139.9c-0.1,0.6-0.7,1.1-1.6,1.1c-1.4,0-2.6-1.1-2.6-3.2c0-2.1,1.1-3.3,2.9-3.3
		c1-0.1,2,0.5,2.4,1.5l-1.1,0.6c-0.2-0.5-0.7-0.9-1.3-0.9c-0.9,0-1.4,0.5-1.4,1.5v1c0,1.1,0.6,1.5,1.4,1.5c0.7,0,1.2-0.3,1.2-0.9
		v-0.3h-1.2v-1.1H21v3.5h-1.2V139.9z"/>
	<path class="st1" d="M16.9,79.4c-0.3,0-0.5-0.2-0.5-0.5V66.4c0-0.3,0.2-0.5,0.5-0.5c0,0,0,0,0,0H23c1.9-0.2,3.6,1.3,3.8,3.2
		c0,0.2,0,0.3,0,0.5c0.1,1.1-0.4,2.1-1.2,2.8c1.1,0.6,1.7,1.8,1.7,3c0.1,2.1-1.5,4-3.7,4.1c0,0-0.1,0-0.1,0L16.9,79.4z M22.8,76.1
		c0.6,0,0.7-0.4,0.7-0.6v-0.6c0-0.3-0.1-0.6-0.7-0.6h-2.7v1.9H22.8z M22.4,71c0.5,0,0.7-0.2,0.7-0.7v-0.5c0-0.3-0.2-0.6-0.5-0.7
		c-0.1,0-0.1,0-0.2,0h-2.2V71L22.4,71z"/>
	<path class="st4" d="M23,66.4c1.6-0.2,3.1,1,3.3,2.7c0,0.2,0,0.4,0,0.6c0,1.9-1.1,2.7-2.3,2.7v0.1c1.5,0,2.8,1.2,2.8,2.7
		c0,0.1,0,0.2,0,0.3c0.1,1.9-1.3,3.5-3.2,3.6c0,0,0,0-0.1,0h-6.7V66.4H23 M19.6,71.5h2.7c0.6,0.1,1.1-0.4,1.2-1c0-0.1,0-0.1,0-0.2
		v-0.5c0.1-0.6-0.4-1.1-1-1.2c-0.1,0-0.1,0-0.2,0h-2.7V71.5 M19.6,76.6h3.2c0.6,0.1,1.1-0.4,1.2-0.9c0-0.1,0-0.1,0-0.2v-0.6
		c0-0.6-0.4-1.1-1-1.1c-0.1,0-0.1,0-0.2,0h-3.2V76.6 M23,65.4h-6.1c-0.6,0-1,0.4-1,1v12.6c0,0.6,0.4,1,1,1h6.7
		c2.4-0.1,4.3-2.1,4.2-4.5c0,0,0,0,0-0.1c0-1.2-0.5-2.3-1.4-3.1c0.6-0.8,0.9-1.7,0.8-2.7c0.1-2.2-1.5-4.1-3.8-4.2
		C23.3,65.3,23.2,65.3,23,65.4z M20.6,69.6h1.7c0,0,0.1,0,0.2,0l0,0c0,0,0,0.1,0,0.1v0.6c0,0,0,0.1,0,0.2h-1.9V69.6z M20.6,74.7h2.2
		c0.1,0,0.1,0,0.2,0l0,0c0,0,0,0,0,0.1v0.6c0,0,0,0.1,0,0.1l0,0c-0.1,0-0.1,0-0.2,0h-2.2V74.7L20.6,74.7z"/>
	<path class="st9" d="M7.7,1.5h144.7c3.1,0,5.7,2.5,5.7,5.7v158.7c0,3.1-2.5,5.7-5.7,5.7H7.7c-3.1,0-5.7-2.5-5.7-5.7V7.2
		C2,4,4.5,1.5,7.7,1.5z"/>
	<line class="st10" x1="48.4" y1="72.6" x2="69.7" y2="72.6"/>
</g>
</svg>
