<?xml version="1.0" encoding="utf-8"?>
<!-- Generator: $$$/GeneralStr/196=Adobe Illustrator 27.6.0, SVG Export Plug-In . SVG Version: 6.00 Build 0)  -->
<svg version="1.1" id="Calque_1" xmlns="http://www.w3.org/2000/svg" xmlns:xlink="http://www.w3.org/1999/xlink" x="0px" y="0px"
	 viewBox="0 0 160 173" style="enable-background:new 0 0 160 173;" xml:space="preserve">
<style type="text/css">
	.st0{fill:#A4DBF8;}
	.st1{fill:#FFFFFF;}
	.st2{fill:#7792B1;}
	.st3{fill:#1D1D1B;}
	.st4{fill:#606F8F;}
	.st5{fill:#4D5271;}
	.st6{fill:#393551;}
	.st7{fill:#281B35;}
	.st8{fill:#8CB4D3;}
	.st9{fill:none;stroke:#A5DBF8;stroke-width:1.42;stroke-miterlimit:10.0001;}
	.st10{fill:none;stroke:#1D1D1B;stroke-width:0.99;stroke-miterlimit:4;}
</style>
<g>
	<path class="st0" d="M12.6,61h17.9c2.9,0,5.3-2.4,5.3-5.3l0,0c0-2.9-2.4-5.3-5.3-5.3H12.6V61z"/>
	<path class="st1" d="M19.9,58.9l-0.5-1.5h-2.1l-0.5,1.5h-1.4l2.1-6.3h1.7l2,6.3H19.9z M18.4,53.9L18.4,53.9l-0.7,2.4h1.4L18.4,53.9
		z"/>
	<path class="st2" d="M13.1,94.4V75h31.1c5.4,0,9.7,4.3,9.7,9.7s-4.3,9.7-9.7,9.7c0,0,0,0,0,0H13.1z"/>
	<path class="st3" d="M44.2,75.5c5.1,0,9.2,4.1,9.2,9.2c0,5.1-4.1,9.2-9.2,9.2c0,0,0,0,0,0H13.6V75.5H44.2 M44.2,74.5H12.6v20.4
		h31.6c5.6,0,10.2-4.6,10.2-10.2l0,0C54.4,79.1,49.8,74.5,44.2,74.5z"/>
	<path class="st4" d="M12.6,107h49.6c2.9,0,5.3-2.4,5.3-5.3l0,0c0-2.9-2.3-5.3-5.3-5.3c0,0,0,0,0,0H12.6V107z"/>
	<path class="st1" d="M16,98.5h2.4c1.7,0,2.8,1,2.8,3.1c0,2.1-1.1,3.1-2.8,3.1H16V98.5z M18.3,103.6c0.8,0,1.3-0.4,1.3-1.4v-1
		c0-1-0.5-1.4-1.3-1.4h-1v3.9L18.3,103.6z"/>
	<path class="st5" d="M12.6,119h57.9c2.9,0,5.3-2.3,5.3-5.3c0,0,0,0,0,0l0,0c0-2.9-2.4-5.3-5.3-5.3H12.6V119z"/>
	<path class="st1" d="M16.4,116.9v-6.3h4.3v1.2h-2.9v1.3h2.5v1.2h-2.5v1.4h2.9v1.2L16.4,116.9z"/>
	<path class="st6" d="M12.6,131h66.1c2.9,0,5.3-2.4,5.3-5.3l0,0c0-2.9-2.3-5.3-5.3-5.3c0,0,0,0,0,0H12.6V131z"/>
	<path class="st1" d="M16.5,128.9v-6.3h4.2v1.2h-2.8v1.3h2.4v1.2h-2.4v2.6L16.5,128.9z"/>
	<path class="st7" d="M12.6,143.1H87c2.9,0,5.3-2.4,5.3-5.3l0,0c0-2.9-2.3-5.3-5.3-5.3c0,0,0,0,0,0H12.6V143.1z"/>
	<path class="st1" d="M19.8,139.9L19.8,139.9c-0.1,0.6-0.7,1.1-1.6,1.1c-1.4,0-2.6-1.1-2.6-3.2c0-2.1,1.2-3.3,2.9-3.3
		c1-0.1,2,0.5,2.4,1.5l-1.1,0.6c-0.2-0.6-0.7-0.9-1.3-0.9c-0.9,0-1.4,0.5-1.4,1.5v1c0,1.1,0.6,1.5,1.4,1.5c0.7,0,1.2-0.3,1.2-0.9
		v-0.3h-1.2v-1.1H21v3.5h-1.2V139.9z"/>
	<path class="st8" d="M12.6,73h26.3c2.9,0,5.3-2.4,5.3-5.3l0,0c0-2.9-2.4-5.3-5.3-5.3H12.6V73z"/>
	<path class="st1" d="M15.9,64.6h3.1c0.8-0.1,1.6,0.5,1.6,1.4c0,0.1,0,0.2,0,0.2c0,1-0.5,1.3-1.2,1.4v0.1c0.8,0,1.4,0.6,1.4,1.4
		c0,0,0,0.1,0,0.1c0.1,0.9-0.7,1.7-1.6,1.8c0,0,0,0,0,0h-3.3V64.6z M17.3,67.2h1.4c0.3,0,0.6-0.2,0.6-0.5c0,0,0-0.1,0-0.1v-0.2
		c0-0.3-0.2-0.6-0.5-0.6c0,0-0.1,0-0.1,0h-1.4V67.2z M17.3,69.7h1.6c0.3,0,0.6-0.2,0.6-0.5c0,0,0-0.1,0-0.1v-0.3
		c0-0.3-0.2-0.6-0.5-0.6c0,0-0.1,0-0.1,0h-1.6V69.7z"/>
	<path class="st1" d="M22.4,91.7c-3.8,0-6.1-2.6-6.1-6.9s2.3-7.1,6.1-7.1c2.2-0.2,4.3,1.2,5.2,3.3c0.1,0.2,0,0.5-0.2,0.6l-2.4,1.2
		c-0.1,0-0.2,0-0.2,0c-0.1,0-0.1,0-0.2,0c-0.1-0.1-0.2-0.2-0.3-0.3c-0.2-0.9-1-1.5-1.9-1.4c-1.4,0-2.2,0.9-2.2,2.6v2
		c0,1.6,0.8,2.6,2.2,2.6c0.9,0,1.8-0.6,2-1.6c0.1-0.1,0.2-0.2,0.3-0.3c0.1,0,0.1,0,0.2,0c0.1,0,0.2,0,0.2,0.1l2.2,1.3
		c0.2,0.1,0.3,0.4,0.2,0.7C26.6,90.5,24.6,91.8,22.4,91.7z"/>
	<path class="st3" d="M22.4,78.2c2.1-0.2,4,1.1,4.7,3l-2.4,1.1c-0.2-1.1-1.2-1.8-2.3-1.8c-1.6,0-2.7,1.1-2.7,3.1v2
		c0,2,1.1,3.1,2.7,3.1c1.2,0,2.2-0.8,2.5-1.9l2.2,1.3c-0.8,1.9-2.7,3.1-4.7,3c-3.4,0-5.6-2.2-5.6-6.4S19,78.1,22.4,78.2 M22.4,77.1
		c-4,0-6.6,2.9-6.6,7.6c0,4.7,2.5,7.4,6.6,7.4c2.4,0.1,4.7-1.3,5.6-3.6c0.2-0.5,0.1-1-0.4-1.3L25.4,86c-0.3-0.1-0.6-0.2-0.8-0.1
		c-0.3,0.1-0.5,0.3-0.6,0.6c-0.2,0.7-0.8,1.2-1.6,1.2c-1.1,0-1.7-0.7-1.7-2.1v-2c0-1.4,0.6-2.1,1.7-2.1c0.7-0.1,1.3,0.4,1.4,1
		c0.1,0.4,0.5,0.7,1,0.7c0.2,0,0.3,0,0.5-0.1l2.4-1.2c0.5-0.2,0.7-0.8,0.4-1.3C27.1,78.4,24.8,77,22.4,77.1L22.4,77.1z"/>
	<path class="st9" d="M7.7,1.5h144.7c3.1,0,5.7,2.5,5.7,5.7v158.7c0,3.1-2.5,5.7-5.7,5.7H7.7c-3.1,0-5.7-2.5-5.7-5.7V7.2
		C2,4,4.5,1.5,7.7,1.5z"/>
	<line class="st10" x1="56.2" y1="84.7" x2="77.5" y2="84.7"/>
</g>
</svg>
