<?xml version="1.0" encoding="utf-8"?>
<!-- Generator: $$$/GeneralStr/196=Adobe Illustrator 27.6.0, SVG Export Plug-In . SVG Version: 6.00 Build 0)  -->
<svg version="1.1" id="Calque_1" xmlns="http://www.w3.org/2000/svg" xmlns:xlink="http://www.w3.org/1999/xlink" x="0px" y="0px"
	 viewBox="0 0 160 173" style="enable-background:new 0 0 160 173;" xml:space="preserve">
<style type="text/css">
	.st0{fill:#A4DBF8;}
	.st1{fill:#FFFFFF;}
	.st2{fill:#7792B1;}
	.st3{fill:#606F8F;}
	.st4{fill:#1D1D1B;}
	.st5{fill:#4D5271;}
	.st6{fill:#393551;}
	.st7{fill:#281B35;}
	.st8{fill:#8CB4D3;}
	.st9{fill:none;stroke:#A5DBF8;stroke-width:1.42;stroke-miterlimit:10.0001;}
	.st10{fill:none;stroke:#1D1D1B;stroke-width:0.99;stroke-miterlimit:4;}
</style>
<g>
	<path class="st0" d="M12.6,61h17.9c2.9,0,5.3-2.3,5.3-5.3c0,0,0,0,0,0l0,0c0-2.9-2.4-5.3-5.3-5.3c0,0,0,0,0,0H12.6V61z"/>
	<path class="st1" d="M19.9,58.9l-0.5-1.5h-2.1l-0.5,1.5h-1.4l2.1-6.3h1.7l2,6.3H19.9z M18.4,53.9L18.4,53.9l-0.7,2.4h1.4L18.4,53.9
		z"/>
	<path class="st2" d="M12.6,85.1H47c2.9,0,5.3-2.4,5.3-5.3l0,0c0-2.9-2.4-5.3-5.3-5.3H12.6V85.1z"/>
	<path class="st1" d="M15.9,79.8c0-2.1,1.1-3.3,2.8-3.3c1-0.1,2,0.5,2.4,1.5l-1.2,0.6c-0.1-0.5-0.6-0.9-1.2-0.9
		c-0.8,0-1.3,0.5-1.3,1.5v1c0,1,0.5,1.5,1.3,1.5c0.6,0,1.1-0.4,1.3-0.9l1.1,0.7c-0.4,0.9-1.3,1.5-2.4,1.5C17,83,15.9,82,15.9,79.8z"
		/>
	<path class="st3" d="M13.1,106.5V87.1h39.8c5.4-0.2,9.8,4,10,9.4c0.2,5.4-4,9.8-9.4,10c-0.2,0-0.4,0-0.6,0H13.1z"/>
	<path class="st4" d="M52.9,87.5c5.1,0.2,9.1,4.4,8.9,9.5c-0.2,4.9-4.1,8.8-8.9,8.9H13.6V87.5H52.9 M52.9,86.5H12.6V107h40.3
		c5.6-0.2,10.1-4.9,9.9-10.5C62.6,91,58.3,86.7,52.9,86.5L52.9,86.5z"/>
	<path class="st5" d="M12.6,119h57.9c2.9,0,5.3-2.4,5.3-5.3c0,0,0,0,0,0l0,0c0-2.9-2.4-5.3-5.3-5.3H12.6V119z"/>
	<path class="st1" d="M16.4,116.9v-6.3h4.3v1.2h-2.9v1.3h2.5v1.2h-2.5v1.4h2.9v1.2L16.4,116.9z"/>
	<path class="st6" d="M12.6,131h66.1c2.9,0,5.3-2.4,5.3-5.3l0,0c0-2.9-2.4-5.3-5.3-5.3H12.6V131z"/>
	<path class="st1" d="M16.5,128.9v-6.3h4.2v1.2h-2.8v1.3h2.4v1.2h-2.4v2.6L16.5,128.9z"/>
	<path class="st7" d="M12.6,143.1H87c2.9,0,5.3-2.4,5.3-5.3l0,0c0-2.9-2.4-5.3-5.3-5.3H12.6V143.1z"/>
	<path class="st1" d="M19.8,139.9L19.8,139.9c-0.1,0.6-0.7,1.1-1.6,1.1c-1.4,0-2.6-1.1-2.6-3.2c0-2.1,1.1-3.3,2.8-3.3
		c1-0.1,2,0.5,2.4,1.5l-1.1,0.6c-0.2-0.6-0.7-0.9-1.3-0.9c-0.8,0-1.4,0.5-1.4,1.5v1c0,1.1,0.6,1.5,1.4,1.5c0.7,0,1.2-0.3,1.2-0.9
		v-0.3h-1.2v-1.1H21v3.5h-1.2V139.9z"/>
	<path class="st8" d="M12.6,73h26.3c2.9,0,5.3-2.3,5.3-5.3c0,0,0,0,0,0l0,0c0-2.9-2.4-5.3-5.3-5.3H12.6V73z"/>
	<path class="st1" d="M15.8,64.6h3.1c0.8-0.1,1.6,0.5,1.7,1.4c0,0.1,0,0.2,0,0.2c0,1-0.5,1.3-1.2,1.4v0.1c0.8,0,1.4,0.6,1.4,1.3
		c0,0,0,0.1,0,0.1c0.1,0.9-0.7,1.7-1.6,1.8c0,0,0,0,0,0h-3.3V64.6z M17.3,67.2h1.4c0.3,0,0.6-0.2,0.6-0.5c0,0,0-0.1,0-0.1v-0.2
		c0-0.3-0.2-0.6-0.5-0.6c0,0-0.1,0-0.1,0h-1.4V67.2z M17.3,69.7h1.6c0.3,0,0.5-0.2,0.6-0.5c0,0,0-0.1,0-0.1v-0.3
		c0-0.3-0.2-0.5-0.5-0.6c0,0-0.1,0-0.1,0h-1.6V69.7z"/>
	<path class="st1" d="M17.3,103.6c-0.3,0-0.5-0.2-0.5-0.5V90.5c0-0.3,0.2-0.5,0.5-0.5h4.7c3.8,0,6,2.5,6,6.8s-2.3,6.8-6,6.8H17.3z
		 M22.1,100.1c1.5,0,2.1-0.8,2.1-2.4v-2c0-1.6-0.7-2.4-2.1-2.4h-1.5v6.7L22.1,100.1z"/>
	<path class="st4" d="M22.1,90.5c3.3,0,5.5,2.1,5.5,6.3s-2.2,6.3-5.5,6.3h-4.7V90.5H22.1 M20.1,100.6h2c1.6,0,2.6-0.9,2.6-2.9v-2
		c0-2-1-2.9-2.6-2.9h-2V100.6 M22.1,89.5h-4.7c-0.6,0-1,0.4-1,1V103c0,0.6,0.4,1,1,1h4.7c4.1,0,6.5-2.7,6.5-7.3
		C28.6,92.2,26.1,89.5,22.1,89.5L22.1,89.5z M21.1,93.9h1c0.9,0,1.6,0.2,1.6,1.9v2c0,1.7-0.8,1.9-1.6,1.9h-1V93.9L21.1,93.9z"/>
	<path class="st9" d="M7.7,1.5h144.7c3.1,0,5.7,2.5,5.7,5.7v158.7c0,3.1-2.5,5.7-5.7,5.7H7.7c-3.1,0-5.7-2.5-5.7-5.7V7.2
		C2,4,4.5,1.5,7.7,1.5z"/>
	<line class="st10" x1="65.1" y1="96.8" x2="86.4" y2="96.8"/>
</g>
</svg>
