<?xml version="1.0" encoding="utf-8"?>
<!-- Generator: $$$/GeneralStr/196=Adobe Illustrator 27.6.0, SVG Export Plug-In . SVG Version: 6.00 Build 0)  -->
<svg version="1.1" id="Calque_1" xmlns="http://www.w3.org/2000/svg" xmlns:xlink="http://www.w3.org/1999/xlink" x="0px" y="0px"
	 viewBox="0 0 160 173" style="enable-background:new 0 0 160 173;" xml:space="preserve">
<style type="text/css">
	.st0{fill:#A4DBF8;}
	.st1{fill:#FFFFFF;}
	.st2{fill:#7792B1;}
	.st3{fill:#4D5271;}
	.st4{fill:#1D1D1B;}
	.st5{fill:#606F8F;}
	.st6{fill:#393551;}
	.st7{fill:#281B35;}
	.st8{fill:#8CB4D3;}
	.st9{fill:none;stroke:#A5DBF8;stroke-width:1.42;stroke-miterlimit:10.0001;}
	.st10{fill:none;stroke:#1D1D1B;stroke-width:0.99;stroke-miterlimit:4;}
</style>
<g>
	<path class="st0" d="M12.6,61h17.9c2.9,0,5.3-2.4,5.3-5.3l0,0c0-2.9-2.4-5.3-5.3-5.3H12.6V61z"/>
	<path class="st1" d="M19.9,58.9l-0.4-1.5h-2.1l-0.5,1.5h-1.4l2.1-6.3h1.7l2,6.3H19.9z M18.4,53.9L18.4,53.9l-0.7,2.4h1.4L18.4,53.9
		z"/>
	<path class="st2" d="M12.6,85.1H47c2.9,0,5.3-2.4,5.3-5.3c0,0,0,0,0,0l0,0c0-2.9-2.4-5.3-5.3-5.3H12.6V85.1z"/>
	<path class="st1" d="M15.9,79.8c0-2.1,1.1-3.3,2.8-3.3c1-0.1,2,0.5,2.4,1.5l-1.2,0.6c-0.1-0.5-0.6-0.9-1.2-0.9
		c-0.8,0-1.3,0.5-1.3,1.5v1c0,1,0.5,1.5,1.3,1.5c0.6,0,1.1-0.4,1.3-0.9l1.1,0.7c-0.4,0.9-1.3,1.5-2.4,1.5C17,83,15.9,82,15.9,79.8z"
		/>
	<path class="st3" d="M13.1,118.5V99.1h48c5.4-0.2,9.8,4,10,9.4s-4,9.8-9.4,10c-0.2,0-0.4,0-0.6,0H13.1z"/>
	<path class="st4" d="M61.1,99.6c5.1,0.2,9.1,4.4,8.9,9.5c-0.2,4.9-4.1,8.8-8.9,8.9H13.6V99.6H61.1 M61.1,98.6H12.6V119h48.5
		c5.6-0.2,10.1-4.9,9.9-10.5C70.9,103.1,66.5,98.7,61.1,98.6z"/>
	<path class="st5" d="M12.6,97.1h42.8c2.9,0,5.3-2.4,5.3-5.3l0,0c0-2.9-2.3-5.3-5.3-5.3c0,0,0,0,0,0H12.6V97.1z"/>
	<path class="st1" d="M15.9,88.7h2.4c1.7,0,2.8,1,2.8,3.1c0,2.1-1.1,3.1-2.8,3.1h-2.4V88.7z M18.3,93.8c0.8,0,1.3-0.4,1.3-1.4v-1
		c0-1-0.5-1.4-1.3-1.4h-1v3.9L18.3,93.8z"/>
	<path class="st6" d="M12.6,131h66.1c2.9,0,5.3-2.4,5.3-5.3l0,0c0-2.9-2.3-5.3-5.3-5.3c0,0,0,0,0,0H12.6V131z"/>
	<path class="st1" d="M16.4,128.9v-6.3h4.2v1.2h-2.8v1.3h2.4v1.2h-2.4v2.6L16.4,128.9z"/>
	<path class="st7" d="M12.6,143.1H87c2.9,0,5.3-2.4,5.3-5.3l0,0c0-2.9-2.3-5.3-5.3-5.3c0,0,0,0,0,0H12.6V143.1z"/>
	<path class="st1" d="M19.8,139.9L19.8,139.9c-0.1,0.6-0.7,1.1-1.6,1.1c-1.4,0-2.6-1.1-2.6-3.2c0-2.1,1.1-3.3,2.8-3.3
		c1-0.1,2,0.5,2.4,1.5l-1.1,0.6c-0.2-0.6-0.7-0.9-1.3-0.9c-0.9,0-1.4,0.5-1.4,1.5v1c0,1.1,0.5,1.5,1.4,1.5c0.7,0,1.2-0.3,1.2-0.9
		v-0.3h-1.2v-1.1H21v3.5h-1.2V139.9z"/>
	<path class="st8" d="M12.6,73h26.3c2.9,0,5.3-2.3,5.3-5.3c0,0,0,0,0,0l0,0c0-2.9-2.4-5.3-5.3-5.3H12.6V73z"/>
	<path class="st1" d="M15.8,64.6h3.1c0.8-0.1,1.6,0.5,1.7,1.4c0,0.1,0,0.2,0,0.2c0,1-0.5,1.3-1.2,1.4v0.1c0.8,0,1.4,0.6,1.4,1.3
		c0,0,0,0.1,0,0.1c0.1,0.9-0.7,1.7-1.6,1.8c0,0,0,0,0,0h-3.3V64.6z M17.2,67.2h1.4c0.3,0,0.5-0.2,0.6-0.5c0,0,0-0.1,0-0.1v-0.2
		c0-0.3-0.2-0.6-0.5-0.6c0,0-0.1,0-0.1,0h-1.4V67.2z M17.2,69.7h1.6c0.3,0,0.6-0.2,0.6-0.5c0,0,0-0.1,0-0.1v-0.3
		c0-0.3-0.2-0.6-0.5-0.6c0,0-0.1,0-0.1,0h-1.6V69.7z"/>
	<path class="st1" d="M17.3,115.7c-0.3,0-0.5-0.2-0.5-0.5c0,0,0,0,0,0v-12.6c0-0.3,0.2-0.5,0.5-0.5h8.6c0.3,0,0.5,0.2,0.5,0.5v2.4
		c0,0.3-0.2,0.5-0.5,0.5h-5.3v1.6H25c0.3,0,0.5,0.2,0.5,0.5c0,0,0,0,0,0v2.4c0,0.3-0.2,0.5-0.5,0.5c0,0,0,0,0,0h-4.5v1.7h5.3
		c0.3,0,0.5,0.2,0.5,0.5v2.4c0,0.3-0.2,0.5-0.5,0.5H17.3z"/>
	<path class="st4" d="M25.9,102.6v2.4H20v2.6h5v2.4h-5v2.7h5.8v2.4h-8.6v-12.6H25.9 M25.9,101.6h-8.6c-0.6,0-1,0.4-1,1v12.6
		c0,0.6,0.4,1,1,1h8.6c0.6,0,1-0.4,1-1v-2.4c0-0.6-0.4-1-1-1H21V111h4c0.6,0,1-0.4,1-1v-2.4c0-0.6-0.4-1-1-1h-4V106h4.8
		c0.6,0,1-0.4,1-1v-2.4C26.9,102,26.4,101.6,25.9,101.6L25.9,101.6z"/>
	<path class="st9" d="M7.7,1.5h144.7c3.1,0,5.7,2.5,5.7,5.7v158.7c0,3.1-2.5,5.7-5.7,5.7H7.7c-3.1,0-5.7-2.5-5.7-5.7V7.2
		C2,4,4.5,1.5,7.7,1.5z"/>
	<line class="st10" x1="73.4" y1="108.8" x2="94.6" y2="108.8"/>
</g>
</svg>
