<?xml version="1.0" encoding="utf-8"?>
<!-- Generator: $$$/GeneralStr/196=Adobe Illustrator 27.6.0, SVG Export Plug-In . SVG Version: 6.00 Build 0)  -->
<svg version="1.1" id="Calque_1" xmlns="http://www.w3.org/2000/svg" xmlns:xlink="http://www.w3.org/1999/xlink" x="0px" y="0px"
	 viewBox="0 0 160 173" style="enable-background:new 0 0 160 173;" xml:space="preserve">
<style type="text/css">
	.st0{fill:#A4DBF8;}
	.st1{fill:#FFFFFF;}
	.st2{fill:#7792B1;}
	.st3{fill:#281B35;}
	.st4{fill:#1D1D1B;}
	.st5{fill:#606F8F;}
	.st6{fill:#4D5271;}
	.st7{fill:#393551;}
	.st8{fill:#8CB4D3;}
	.st9{fill:none;stroke:#A5DBF8;stroke-width:1.42;stroke-miterlimit:10.0001;}
	.st10{fill:none;stroke:#1D1D1B;stroke-width:0.99;stroke-miterlimit:4;}
</style>
<g>
	<path class="st0" d="M12.6,61h17.9c2.9,0,5.3-2.3,5.3-5.3c0,0,0,0,0,0l0,0c0-2.9-2.4-5.3-5.3-5.3c0,0,0,0,0,0H12.6V61z"/>
	<path class="st1" d="M19.8,58.9l-0.5-1.5h-2.1l-0.5,1.5h-1.4l2.1-6.3h1.7l2,6.3H19.8z M18.4,53.9L18.4,53.9l-0.8,2.4H19L18.4,53.9z
		"/>
	<path class="st2" d="M12.6,85.1H47c2.9,0,5.3-2.4,5.3-5.3c0,0,0,0,0,0l0,0c0-2.9-2.4-5.3-5.3-5.3H12.6V85.1z"/>
	<path class="st1" d="M15.9,79.8c0-2.1,1.1-3.3,2.8-3.3c1-0.1,2,0.5,2.4,1.5l-1.2,0.6c-0.1-0.5-0.6-0.9-1.2-0.9
		c-0.8,0-1.3,0.5-1.3,1.5v1c0,1,0.5,1.5,1.3,1.5c0.6,0,1.1-0.4,1.3-0.9l1.1,0.7c-0.4,0.9-1.3,1.5-2.4,1.5C17,83,15.9,82,15.9,79.8z"
		/>
	<path class="st3" d="M13.1,142.6v-19.4h64.6c5.4,0,9.7,4.4,9.7,9.7c0,5.4-4.3,9.7-9.7,9.7H13.1z"/>
	<path class="st4" d="M77.7,123.7c5.1,0,9.2,4.1,9.2,9.2c0,5.1-4.1,9.2-9.2,9.2H13.6v-18.4H77.7 M77.7,122.7H12.6v20.4h65.1
		c5.6,0.2,10.3-4.2,10.5-9.9c0.2-5.6-4.2-10.3-9.9-10.5C78.1,122.7,77.9,122.7,77.7,122.7z"/>
	<path class="st5" d="M12.6,97.1h42.8c2.9,0,5.3-2.4,5.3-5.3l0,0c0-2.9-2.3-5.3-5.3-5.3c0,0,0,0,0,0H12.6V97.1z"/>
	<path class="st1" d="M15.9,88.7h2.4c1.7,0,2.8,1,2.8,3.1c0,2.1-1.1,3.1-2.8,3.1h-2.4V88.7z M18.3,93.8c0.8,0,1.3-0.4,1.3-1.4v-1
		c0-1-0.5-1.4-1.3-1.4h-1v3.9L18.3,93.8z"/>
	<path class="st6" d="M12.6,109.2h51c2.9,0,5.3-2.4,5.3-5.3l0,0c0-2.9-2.3-5.3-5.3-5.3c0,0,0,0,0,0h-51L12.6,109.2z"/>
	<path class="st1" d="M16.3,107v-6.3h4.3v1.2h-2.9v1.3h2.5v1.2h-2.5v1.4h2.9v1.2H16.3z"/>
	<path class="st7" d="M12.6,121.2h59.4c2.9,0,5.3-2.4,5.3-5.3l0,0c0-2.9-2.4-5.3-5.3-5.3H12.6V121.2z"/>
	<path class="st1" d="M16.4,119.1v-6.3h4.2v1.2h-2.8v1.3h2.4v1.2h-2.4v2.6L16.4,119.1z"/>
	<path class="st8" d="M12.6,73h26.3c2.9,0,5.3-2.3,5.3-5.3c0,0,0,0,0,0l0,0c0-2.9-2.4-5.3-5.3-5.3H12.6V73z"/>
	<path class="st1" d="M15.8,64.6h3.1c0.8-0.1,1.6,0.5,1.7,1.4c0,0.1,0,0.2,0,0.2c0,1-0.5,1.3-1.2,1.4v0.1c0.8,0,1.4,0.6,1.4,1.3
		c0,0,0,0.1,0,0.1c0.1,0.9-0.7,1.7-1.6,1.8c0,0,0,0,0,0h-3.3V64.6z M17.2,67.2h1.4c0.3,0,0.5-0.2,0.6-0.5c0,0,0-0.1,0-0.1v-0.2
		c0-0.3-0.2-0.6-0.5-0.6c0,0-0.1,0-0.1,0h-1.4L17.2,67.2z M17.2,69.7h1.6c0.3,0,0.6-0.2,0.6-0.5c0,0,0-0.1,0-0.1v-0.3
		c0-0.3-0.2-0.6-0.5-0.6c0,0-0.1,0-0.1,0h-1.6L17.2,69.7z"/>
	<path class="st1" d="M21.5,139.9c-3.4,0-5.6-2.7-5.6-6.9c0-4.2,2.4-7.1,6.2-7.1c2.3-0.1,4.3,1.1,5.3,3.2c0.1,0.2,0,0.5-0.2,0.7
		l-2.2,1.3c-0.1,0-0.2,0.1-0.2,0.1c-0.1,0-0.1,0-0.2,0c-0.1,0-0.2-0.1-0.3-0.3c-0.3-0.9-1.2-1.5-2.2-1.5c-1.5,0-2.3,0.9-2.3,2.6v2
		c0,1.7,0.8,2.6,2.3,2.6c1,0,2-0.4,2-1.4v-0.1h-1.9c-0.3,0-0.5-0.2-0.5-0.5v-2.3c0-0.3,0.2-0.5,0.5-0.5h5c0.3,0,0.5,0.2,0.5,0.5
		c0,0,0,0,0,0v7c0,0.3-0.2,0.5-0.5,0.5c0,0,0,0,0,0h-2.3c-0.3,0-0.5-0.2-0.5-0.5c0,0,0,0,0,0v-0.2C23.5,139.6,22.5,139.9,21.5,139.9
		z"/>
	<path class="st4" d="M22,126.4c2.1-0.1,4,1,4.9,2.9l-2.2,1.3c-0.4-1.1-1.4-1.8-2.6-1.8c-1.7,0-2.8,1-2.8,3.1v2
		c0,2.1,1.1,3.1,2.8,3.1c1.4,0,2.5-0.6,2.5-1.9v-0.6h-2.3v-2.3h5v7h-2.3v-2h-0.1c-0.2,1.3-1.3,2.2-3.2,2.2c-2.9,0-5.2-2.2-5.2-6.4
		C16.4,128.7,18.6,126.4,22,126.4 M22,125.4c-4.1,0-6.7,2.9-6.7,7.6c0,3.7,1.9,7.4,6.1,7.4c0.9,0,1.7-0.2,2.5-0.6
		c0.2,0.3,0.5,0.4,0.8,0.4h2.3c0.6,0,1-0.4,1-1v-7c0-0.6-0.4-1-1-1h-1.5l1.8-1c0.5-0.3,0.6-0.8,0.4-1.3
		C26.7,126.6,24.4,125.3,22,125.4z M22,135.9c-0.8,0-1.8-0.2-1.8-2.1v-2c0-1.8,1-2.1,1.8-2.1c0.8-0.1,1.5,0.4,1.7,1.1
		c0,0.1,0.1,0.2,0.1,0.2h-1.7c-0.6,0-1,0.4-1,1v2.3c0,0.6,0.4,1,1,1h1.3C23.1,135.9,22.2,136,22,135.9L22,135.9z"/>
	<path class="st9" d="M7.7,1.5h144.7c3.1,0,5.7,2.5,5.7,5.7v158.7c0,3.1-2.5,5.7-5.7,5.7H7.7c-3.1,0-5.7-2.5-5.7-5.7V7.2
		C2,4,4.5,1.5,7.7,1.5z"/>
	<line class="st10" x1="89.8" y1="132.9" x2="95.9" y2="132.9"/>
</g>
</svg>
