<?xml version="1.0" encoding="utf-8"?>
<!-- Generator: $$$/GeneralStr/196=Adobe Illustrator 27.6.0, SVG Export Plug-In . SVG Version: 6.00 Build 0)  -->
<svg version="1.1" id="Calque_1" xmlns="http://www.w3.org/2000/svg" xmlns:xlink="http://www.w3.org/1999/xlink" x="0px" y="0px"
	 viewBox="0 0 160 173" style="enable-background:new 0 0 160 173;" xml:space="preserve">
<style type="text/css">
	.st0{fill:#C3D9EF;}
</style>
<g>
	<path d="M14.3,13.9l-0.8-1.6h-0.1l-0.8,1.6l-1-0.7l1.2-1.3l0-0.1L11,11.5l0.4-1.1l1.6,0.8l0.1-0.1l-0.3-1.8H14l-0.3,1.8l0.1,0.1
		l1.6-0.8l0.4,1.1L14,11.8l0,0.1l1.2,1.3C15.2,13.1,14.3,13.9,14.3,13.9z"/>
	<path d="M17,9.8h2.3c0.4,0,0.8,0.1,1.1,0.2c0.3,0.1,0.6,0.3,0.8,0.6s0.4,0.6,0.5,1c0.1,0.4,0.2,0.9,0.2,1.5s-0.1,1.1-0.2,1.5
		s-0.3,0.8-0.5,1c-0.2,0.3-0.5,0.5-0.8,0.6c-0.3,0.1-0.7,0.2-1.1,0.2H17C17,16.3,17,9.8,17,9.8z M19.3,15.2c0.8,0,1.1-0.4,1.1-1.3
		v-1.6c0-0.9-0.4-1.3-1.1-1.3h-1v4.2H19.3z"/>
	<path d="M25,16.5c-0.7,0-1.2-0.2-1.6-0.6c-0.3-0.4-0.5-1.1-0.5-2s0.2-1.5,0.5-2c0.3-0.4,0.9-0.6,1.6-0.6s1.2,0.2,1.6,0.6
		s0.5,1.1,0.5,2s-0.2,1.5-0.5,2S25.7,16.5,25,16.5z M25,15.4c0.5,0,0.7-0.3,0.7-0.8v-1.4c0-0.6-0.2-0.8-0.7-0.8s-0.7,0.3-0.7,0.8
		v1.4C24.3,15.1,24.5,15.4,25,15.4z"/>
	<path d="M28.3,16.3v-5h1.3v0.8h0.2c0-0.1,0.1-0.2,0.2-0.4c0.1-0.1,0.1-0.2,0.2-0.3c0.1-0.1,0.2-0.2,0.3-0.2s0.3-0.1,0.4-0.1
		c0.5,0,0.8,0.1,1,0.5c0.2,0.3,0.3,0.7,0.3,1.2v3.4H31v-3.1c0-0.6-0.2-0.9-0.6-0.9c-0.2,0-0.4,0.1-0.5,0.2c-0.2,0.1-0.2,0.3-0.2,0.5
		v3.3L28.3,16.3L28.3,16.3z"/>
	<path d="M35.2,16.3c-0.5,0-0.8-0.1-1-0.3s-0.3-0.5-0.3-1v-2.7h-0.6v-1h0.3c0.2,0,0.3,0,0.4-0.1c0.1-0.1,0.1-0.2,0.1-0.4V10h1.2v1.3
		h0.9v1h-0.9v2.9H36v1C36,16.3,35.2,16.3,35.2,16.3z"/>
	<path d="M41.5,16.5c-0.7,0-1.2-0.2-1.6-0.7s-0.6-1.1-0.6-1.9s0.2-1.5,0.5-2c0.3-0.4,0.9-0.6,1.6-0.6s1.2,0.2,1.6,0.6
		s0.5,1.1,0.5,1.9v0.3h-2.8v0.3c0,0.3,0.1,0.5,0.2,0.7s0.4,0.2,0.7,0.2c0.2,0,0.5,0,0.6-0.2c0.2-0.1,0.3-0.3,0.5-0.5l0.7,0.8
		c-0.2,0.3-0.5,0.5-0.8,0.6C42.3,16.4,41.9,16.4,41.5,16.5L41.5,16.5z M41.4,12.3c-0.5,0-0.7,0.3-0.7,0.8v0.3h1.5v-0.3
		C42.1,12.6,41.9,12.3,41.4,12.3L41.4,12.3z M41.6,10.9l-0.8-0.4l0.9-1.9l1.1,0.5C42.8,9.2,41.5,10.9,41.6,10.9z"/>
	<path d="M44.7,16.3v-5H46v0.8h0.2c0-0.1,0.1-0.2,0.2-0.4c0.1-0.1,0.1-0.2,0.2-0.3c0.1-0.1,0.2-0.2,0.3-0.2s0.3-0.1,0.4-0.1
		c0.3,0,0.6,0.1,0.8,0.3s0.3,0.4,0.4,0.7h0.1c0.1-0.4,0.3-0.6,0.5-0.8s0.5-0.2,0.8-0.2c0.4,0,0.7,0.1,1,0.5c0.2,0.3,0.3,0.7,0.3,1.2
		v3.4h-1.3v-3.1c0-0.6-0.2-0.9-0.6-0.9c-0.2,0-0.4,0.1-0.5,0.2s-0.2,0.3-0.2,0.5v3.3h-1.3v-3.1c0-0.6-0.2-0.9-0.6-0.9
		c-0.2,0-0.4,0.1-0.5,0.2S46,12.8,46,13v3.3L44.7,16.3L44.7,16.3z"/>
	<path d="M53.3,10.8c-0.3,0-0.5-0.1-0.6-0.2s-0.2-0.3-0.2-0.5V9.9c0-0.2,0.1-0.4,0.2-0.5s0.3-0.2,0.6-0.2s0.5,0.1,0.6,0.2
		c0.1,0.1,0.2,0.3,0.2,0.5v0.2c0,0.2-0.1,0.4-0.2,0.5C53.8,10.7,53.6,10.8,53.3,10.8z M52.6,11.4H54v5h-1.3V11.4z"/>
	<path d="M57,16.5c-0.8,0-1.5-0.3-1.9-0.9l0.8-0.8c0.3,0.4,0.7,0.6,1.2,0.6c0.4,0,0.6-0.2,0.6-0.5c0-0.1,0-0.2-0.1-0.3
		s-0.2-0.1-0.3-0.2l-0.5-0.1c-0.5-0.1-0.9-0.3-1.2-0.5c-0.2-0.2-0.3-0.6-0.3-1c0-0.5,0.2-0.9,0.5-1.2c0.3-0.3,0.8-0.4,1.3-0.4
		c0.4,0,0.7,0.1,1,0.2s0.6,0.3,0.8,0.6l-0.8,0.8c-0.3-0.3-0.6-0.5-1-0.5c-0.4,0-0.6,0.2-0.6,0.5c0,0.1,0,0.2,0.1,0.3
		s0.2,0.1,0.3,0.2l0.5,0.1c0.5,0.1,0.9,0.2,1.1,0.5c0.2,0.2,0.3,0.5,0.3,1c0,0.5-0.2,0.9-0.5,1.2S57.6,16.5,57,16.5L57,16.5z"/>
	<path d="M61.5,16.5c-0.8,0-1.5-0.3-1.9-0.9l0.8-0.8c0.3,0.4,0.7,0.6,1.2,0.6c0.4,0,0.6-0.2,0.6-0.5c0-0.1,0-0.2-0.1-0.3
		s-0.2-0.1-0.3-0.2l-0.5-0.1c-0.5-0.1-0.9-0.3-1.2-0.5c-0.2-0.2-0.3-0.6-0.3-1c0-0.5,0.2-0.9,0.5-1.2c0.3-0.3,0.8-0.4,1.3-0.4
		c0.4,0,0.7,0.1,1,0.2s0.6,0.3,0.8,0.6l-0.8,0.8c-0.3-0.3-0.6-0.5-1-0.5c-0.4,0-0.6,0.2-0.6,0.5c0,0.1,0,0.2,0.1,0.3
		s0.2,0.1,0.3,0.2l0.5,0.1c0.5,0.1,0.9,0.2,1.1,0.5c0.2,0.2,0.3,0.5,0.3,1c0,0.5-0.2,0.9-0.5,1.2S62.1,16.5,61.5,16.5L61.5,16.5z"/>
	<path d="M65.3,10.8c-0.3,0-0.5-0.1-0.6-0.2s-0.2-0.3-0.2-0.5V9.9c0-0.2,0.1-0.4,0.2-0.5s0.3-0.2,0.6-0.2s0.5,0.1,0.6,0.2
		C66,9.6,66,9.7,66,9.9v0.2c0,0.2-0.1,0.4-0.2,0.5C65.7,10.7,65.5,10.8,65.3,10.8z M64.6,11.4h1.3v5h-1.3V11.4z"/>
	<path d="M69.2,16.5c-0.7,0-1.2-0.2-1.6-0.6c-0.3-0.4-0.5-1.1-0.5-2s0.2-1.5,0.5-2c0.3-0.4,0.9-0.6,1.6-0.6s1.2,0.2,1.6,0.6
		s0.5,1.1,0.5,2s-0.2,1.5-0.5,2S69.9,16.5,69.2,16.5z M69.2,15.4c0.5,0,0.7-0.3,0.7-0.8v-1.4c0-0.6-0.2-0.8-0.7-0.8
		s-0.7,0.3-0.7,0.8v1.4C68.5,15.1,68.7,15.4,69.2,15.4z"/>
	<path d="M72.5,16.3v-5h1.3v0.8H74c0-0.1,0.1-0.2,0.2-0.4c0.1-0.1,0.1-0.2,0.2-0.3c0.1-0.1,0.2-0.2,0.3-0.2c0.1,0,0.3-0.1,0.4-0.1
		c0.4,0,0.8,0.1,1,0.5c0.2,0.3,0.3,0.7,0.3,1.2v3.4h-1.3v-3.1c0-0.6-0.2-0.9-0.6-0.9c-0.2,0-0.4,0.1-0.5,0.2
		c-0.2,0.1-0.2,0.3-0.2,0.5v3.3L72.5,16.3L72.5,16.3z"/>
	<path d="M79.5,16.5c-0.8,0-1.5-0.3-1.9-0.9l0.8-0.8c0.3,0.4,0.7,0.6,1.2,0.6c0.4,0,0.6-0.2,0.6-0.5c0-0.1,0-0.2-0.1-0.3
		s-0.2-0.1-0.3-0.2l-0.5-0.1c-0.5-0.1-0.9-0.3-1.2-0.5c-0.2-0.2-0.3-0.6-0.3-1c0-0.5,0.2-0.9,0.5-1.2c0.3-0.3,0.8-0.4,1.3-0.4
		c0.4,0,0.7,0.1,1,0.2s0.6,0.3,0.8,0.6l-0.8,0.8c-0.3-0.3-0.6-0.5-1-0.5c-0.4,0-0.6,0.2-0.6,0.5c0,0.1,0,0.2,0.1,0.3
		s0.2,0.1,0.3,0.2l0.5,0.1c0.5,0.1,0.9,0.2,1.1,0.5c0.2,0.2,0.3,0.5,0.3,1c0,0.5-0.2,0.9-0.5,1.2S80.1,16.5,79.5,16.5L79.5,16.5z"/>
	<path d="M87.6,15.5h-0.2c0,0.1-0.1,0.2-0.2,0.4c-0.1,0.1-0.2,0.2-0.2,0.3c-0.1,0.1-0.2,0.2-0.3,0.2s-0.2,0.1-0.4,0.1
		c-0.6,0-1-0.2-1.3-0.7s-0.4-1.1-0.4-1.9s0.1-1.5,0.4-1.9c0.3-0.4,0.7-0.6,1.3-0.6c0.1,0,0.3,0,0.4,0.1s0.2,0.1,0.3,0.2
		c0.1,0.1,0.2,0.2,0.2,0.3c0.1,0.1,0.1,0.2,0.2,0.4h0.2V9.4h1.3v7h-1.3C87.6,16.3,87.6,15.5,87.6,15.5z M86.9,15.4
		c0.2,0,0.4,0,0.6-0.2s0.2-0.3,0.2-0.5V13c0-0.2-0.1-0.4-0.2-0.5s-0.3-0.2-0.6-0.2s-0.4,0.1-0.6,0.2C86.1,12.7,86,13,86,13.2v1.2
		c0,0.3,0.1,0.5,0.2,0.7C86.4,15.3,86.6,15.4,86.9,15.4L86.9,15.4z"/>
	<path d="M92.4,16.5c-0.7,0-1.2-0.2-1.6-0.7c-0.4-0.4-0.6-1.1-0.6-1.9s0.2-1.5,0.5-2c0.4-0.4,0.9-0.6,1.6-0.6s1.2,0.2,1.6,0.6
		c0.3,0.4,0.5,1.1,0.5,1.9v0.3h-2.8v0.3c0,0.3,0.1,0.5,0.2,0.7c0.2,0.2,0.4,0.2,0.7,0.2c0.2,0,0.4,0,0.6-0.2s0.3-0.3,0.5-0.5
		l0.7,0.8c-0.2,0.3-0.5,0.5-0.8,0.6C93.1,16.4,92.8,16.4,92.4,16.5L92.4,16.5z M92.2,12.3c-0.5,0-0.7,0.3-0.7,0.8v0.3h1.4v-0.3
		C92.9,12.6,92.7,12.3,92.2,12.3L92.2,12.3z"/>
	<path d="M102,16.7c0,0.3,0,0.5-0.1,0.7s-0.2,0.4-0.4,0.5c-0.2,0.1-0.4,0.2-0.8,0.3s-0.7,0.1-1.2,0.1c-0.4,0-0.8,0-1-0.1
		c-0.3,0-0.5-0.1-0.7-0.2c-0.2-0.1-0.3-0.2-0.3-0.4s-0.1-0.3-0.1-0.5c0-0.2,0.1-0.4,0.2-0.6c0.1-0.1,0.3-0.2,0.6-0.3v-0.2
		c-0.2,0-0.4-0.1-0.5-0.3c-0.1-0.2-0.2-0.3-0.2-0.5c0-0.1,0-0.2,0.1-0.3s0.1-0.2,0.2-0.2c0.1-0.1,0.2-0.1,0.3-0.2s0.2-0.1,0.3-0.1
		v-0.1c-0.3-0.1-0.5-0.3-0.6-0.6c-0.1-0.2-0.2-0.5-0.2-0.9c0-0.5,0.2-0.9,0.4-1.2c0.3-0.3,0.8-0.4,1.5-0.4c0.1,0,0.3,0,0.4,0
		s0.2,0,0.4,0.1v-0.2c0-0.2,0.1-0.4,0.2-0.6s0.3-0.2,0.5-0.2h0.7v1h-1v0.1c0.3,0.1,0.4,0.3,0.6,0.5c0.1,0.2,0.2,0.5,0.2,0.8
		c0,0.5-0.2,0.9-0.4,1.2c-0.3,0.3-0.8,0.4-1.5,0.4c-0.2,0-0.3,0-0.4,0c-0.1,0-0.3,0-0.4-0.1c-0.1,0.1-0.2,0.2-0.2,0.4
		c0,0.1,0,0.2,0.1,0.3c0.1,0.1,0.2,0.1,0.4,0.1h1.3c0.6,0,1,0.1,1.2,0.4S102,16.2,102,16.7L102,16.7z M100.8,16.9
		c0-0.2-0.1-0.3-0.2-0.3c-0.1-0.1-0.3-0.1-0.5-0.1h-1.5c0,0.1-0.1,0.1-0.1,0.2s0,0.2,0,0.3c0,0.2,0.1,0.3,0.2,0.4
		c0.1,0.1,0.4,0.1,0.7,0.1h0.5c0.3,0,0.6,0,0.7-0.1S100.8,17.1,100.8,16.9L100.8,16.9z M99.6,13.7c0.3,0,0.4-0.1,0.6-0.2
		s0.2-0.3,0.2-0.5v-0.2c0-0.2-0.1-0.4-0.2-0.5c-0.1-0.1-0.3-0.2-0.6-0.2s-0.4,0.1-0.6,0.2s-0.2,0.3-0.2,0.5V13
		c0,0.2,0.1,0.4,0.2,0.5S99.3,13.7,99.6,13.7z"/>
	<path d="M106.1,16.3c-0.5,0-0.8-0.3-0.8-0.9h-0.1c-0.1,0.3-0.2,0.5-0.4,0.7s-0.5,0.3-0.8,0.3c-0.4,0-0.8-0.1-1-0.4
		s-0.3-0.6-0.3-1.1c0-0.5,0.2-0.9,0.5-1.2c0.3-0.2,0.8-0.4,1.4-0.4h0.7v-0.4c0-0.3-0.1-0.5-0.2-0.6s-0.3-0.2-0.5-0.2
		c-0.2,0-0.4,0-0.6,0.2s-0.3,0.2-0.4,0.4l-0.8-0.7c0.2-0.3,0.4-0.5,0.7-0.7s0.7-0.2,1.1-0.2c0.7,0,1.1,0.1,1.4,0.5s0.5,0.7,0.5,1.4
		v2.2h0.4v1L106.1,16.3L106.1,16.3z M104.5,15.5c0.2,0,0.4,0,0.5-0.2s0.2-0.3,0.2-0.5v-0.6h-0.6c-0.4,0-0.7,0.2-0.7,0.6V15
		c0,0.2,0.1,0.3,0.2,0.4S104.3,15.5,104.5,15.5L104.5,15.5z"/>
	<path d="M107.8,16.3v-1l2.2-2.9h-2.1v-1h3.6v1l-2.2,2.9h2.2v1C111.5,16.3,107.8,16.3,107.8,16.3z"/>
	<path d="M14.6,27.6c-0.5,0-0.8-0.3-0.8-0.9h-0.1c0,0.3-0.2,0.5-0.4,0.7s-0.5,0.3-0.8,0.3c-0.5,0-0.8-0.1-1-0.4S11,26.8,11,26.3
		c0-0.5,0.2-0.9,0.5-1.2c0.3-0.2,0.8-0.4,1.4-0.4h0.7v-0.4c0-0.3,0-0.5-0.2-0.6s-0.3-0.2-0.5-0.2c-0.2,0-0.4,0-0.5,0.2
		S12.1,24,12,24.2l-0.8-0.7c0.2-0.3,0.5-0.5,0.7-0.7c0.3-0.2,0.7-0.2,1.1-0.2c0.6,0,1.1,0.2,1.4,0.5s0.5,0.8,0.5,1.3v2.2h0.4v1
		L14.6,27.6L14.6,27.6z M11.7,20.5l1.1-0.5l0.9,1.9l-0.8,0.4C12.9,22.2,11.7,20.5,11.7,20.5z M12.9,26.8c0.2,0,0.4,0,0.5-0.2
		s0.2-0.3,0.2-0.5v-0.6H13c-0.5,0-0.7,0.2-0.7,0.6v0.2c0,0.2,0,0.3,0.1,0.4C12.6,26.8,12.7,26.8,12.9,26.8L12.9,26.8z"/>
	<path d="M20.8,27.8c-0.7,0-1.2-0.2-1.6-0.7s-0.6-1.1-0.6-1.9s0.2-1.5,0.5-2c0.3-0.4,0.9-0.6,1.6-0.6s1.2,0.2,1.6,0.6s0.5,1.1,0.5,2
		v0.3h-2.8v0.3c0,0.3,0.1,0.5,0.2,0.7s0.4,0.2,0.7,0.2c0.2,0,0.5,0,0.6-0.2c0.2-0.1,0.3-0.3,0.5-0.5l0.7,0.8
		c-0.2,0.3-0.5,0.5-0.8,0.6C21.6,27.7,21.2,27.7,20.8,27.8L20.8,27.8z M20.7,23.6c-0.5,0-0.7,0.3-0.7,0.8v0.3h1.5v-0.3
		C21.4,23.9,21.2,23.6,20.7,23.6L20.7,23.6z"/>
	<path d="M24.2,23.7h-0.6v-1h0.6v-0.6c0-0.5,0.1-0.8,0.3-1.1s0.6-0.3,1-0.3h0.9v1h-0.9v1h0.9v1h-0.9v3.9h-1.3V23.7L24.2,23.7z"/>
	<path d="M27.8,23.7h-0.6v-1h0.6v-0.6c0-0.5,0.1-0.8,0.3-1.1s0.6-0.3,1-0.3H30v1h-0.9v1H30v1h-0.9v3.9h-1.3V23.7L27.8,23.7z"/>
	<path d="M33,27.8c-0.7,0-1.2-0.2-1.6-0.7s-0.6-1.1-0.6-1.9s0.2-1.5,0.5-2c0.3-0.4,0.9-0.6,1.6-0.6s1.2,0.2,1.6,0.6s0.5,1.1,0.5,2
		v0.3h-2.8v0.3c0,0.3,0.1,0.5,0.2,0.7s0.4,0.2,0.7,0.2c0.2,0,0.5,0,0.6-0.2c0.2-0.1,0.3-0.3,0.5-0.5l0.7,0.8
		c-0.2,0.3-0.5,0.5-0.8,0.6C33.7,27.7,33.4,27.7,33,27.8L33,27.8z M32.8,23.6c-0.5,0-0.7,0.3-0.7,0.8v0.3h1.5v-0.3
		C33.6,23.9,33.3,23.6,32.8,23.6L32.8,23.6z"/>
	<path d="M37.7,27.6c-0.5,0-0.8-0.1-1-0.3s-0.3-0.5-0.3-1v-2.7h-0.6v-1h0.3c0.2,0,0.3,0,0.4-0.1c0.1-0.1,0.1-0.2,0.1-0.4v-0.9h1.2
		v1.3h0.9v1h-0.9v2.9h0.8v1H37.7z"/>
	<path d="M44.7,26.8h-0.2c0,0.1-0.1,0.2-0.2,0.4c-0.1,0.1-0.2,0.2-0.2,0.3c-0.1,0.1-0.2,0.2-0.3,0.2s-0.2,0.1-0.4,0.1
		c-0.6,0-1-0.2-1.3-0.7s-0.4-1.1-0.4-1.9s0.1-1.5,0.4-1.9s0.7-0.7,1.3-0.7c0.1,0,0.3,0,0.4,0.1s0.2,0.1,0.3,0.2
		c0.1,0.1,0.2,0.2,0.2,0.3c0.1,0.1,0.1,0.2,0.2,0.4h0.2v-2.8h1.3v7h-1.3V26.8z M44,26.7c0.2,0,0.4,0,0.6-0.2s0.2-0.3,0.2-0.5v-1.7
		c0-0.2-0.1-0.4-0.2-0.5s-0.3-0.2-0.6-0.2s-0.4,0.1-0.6,0.2c-0.2,0.2-0.2,0.4-0.2,0.7v1.2c0,0.3,0.1,0.5,0.2,0.7S43.7,26.7,44,26.7
		L44,26.7z"/>
	<path d="M49.5,27.8c-0.7,0-1.2-0.2-1.6-0.7s-0.6-1.1-0.6-1.9s0.2-1.5,0.5-2c0.3-0.4,0.9-0.6,1.6-0.6s1.2,0.2,1.6,0.6s0.5,1.1,0.5,2
		v0.3h-2.8v0.3c0,0.3,0.1,0.5,0.2,0.7s0.4,0.2,0.7,0.2c0.2,0,0.4,0,0.6-0.2c0.2-0.1,0.3-0.3,0.5-0.5l0.7,0.8
		c-0.2,0.3-0.5,0.5-0.8,0.6C50.3,27.7,49.9,27.7,49.5,27.8L49.5,27.8z M49.4,23.6c-0.5,0-0.7,0.3-0.7,0.8v0.3h1.4v-0.3
		C50.1,23.9,49.8,23.6,49.4,23.6L49.4,23.6z"/>
	<path d="M56.5,27.8c-0.8,0-1.5-0.3-1.9-0.9l0.8-0.8c0.3,0.4,0.7,0.6,1.2,0.6c0.4,0,0.6-0.2,0.6-0.5c0-0.1,0-0.2-0.1-0.3
		s-0.2-0.1-0.3-0.2l-0.5-0.1c-0.5-0.1-0.9-0.3-1.2-0.5c-0.2-0.2-0.3-0.6-0.3-1c0-0.5,0.2-0.9,0.5-1.2c0.3-0.3,0.8-0.4,1.3-0.4
		c0.4,0,0.7,0.1,1,0.2s0.6,0.3,0.8,0.6l-0.8,0.8c-0.3-0.3-0.6-0.5-1-0.5c-0.4,0-0.6,0.2-0.6,0.5c0,0.1,0,0.2,0.1,0.3
		s0.2,0.1,0.3,0.2l0.5,0.1c0.5,0.1,0.9,0.2,1.1,0.5c0.2,0.2,0.3,0.5,0.3,1c0,0.5-0.2,0.9-0.5,1.2S57.1,27.8,56.5,27.8L56.5,27.8z"/>
	<path d="M61.5,27.8c-0.7,0-1.2-0.2-1.6-0.7c-0.4-0.4-0.6-1.1-0.6-1.9s0.2-1.5,0.5-2c0.3-0.4,0.9-0.6,1.6-0.6s1.2,0.2,1.6,0.6
		s0.5,1.1,0.5,2v0.3h-2.8v0.3c0,0.3,0.1,0.5,0.2,0.7s0.4,0.2,0.7,0.2c0.2,0,0.4,0,0.6-0.2c0.2-0.1,0.3-0.3,0.5-0.5l0.7,0.8
		c-0.2,0.3-0.5,0.5-0.8,0.6C62.3,27.7,61.9,27.7,61.5,27.8L61.5,27.8z M61.4,23.6c-0.5,0-0.7,0.3-0.7,0.8v0.3h1.4v-0.3
		C62.1,23.9,61.9,23.6,61.4,23.6L61.4,23.6z"/>
	<path d="M64.7,27.6v-5H66v1.1h0.2c0-0.1,0.1-0.3,0.1-0.4c0-0.1,0.1-0.2,0.2-0.3s0.2-0.2,0.3-0.2s0.3-0.1,0.4-0.1h0.2V24h-0.3
		c-0.4,0-0.6,0-0.8,0.2c-0.2,0.1-0.2,0.3-0.2,0.6v2.9H64.7z"/>
	<path d="M68.5,27.6v-5h1.3v1.1H70c0-0.1,0.1-0.3,0.1-0.4c0-0.1,0.1-0.2,0.2-0.3s0.2-0.2,0.3-0.2s0.3-0.1,0.4-0.1h0.2V24h-0.3
		c-0.4,0-0.6,0-0.8,0.2c-0.2,0.1-0.2,0.3-0.2,0.6v2.9H68.5z"/>
	<path d="M74.2,27.8c-0.7,0-1.2-0.2-1.6-0.7C72.2,26.7,72,26,72,25.2s0.2-1.5,0.5-2c0.3-0.4,0.9-0.6,1.6-0.6s1.2,0.2,1.6,0.6
		s0.5,1.1,0.5,2v0.3h-2.8v0.3c0,0.3,0.1,0.5,0.2,0.7s0.4,0.2,0.7,0.2c0.2,0,0.4,0,0.6-0.2c0.2-0.1,0.3-0.3,0.5-0.5l0.7,0.8
		c-0.2,0.3-0.5,0.5-0.8,0.6C75,27.7,74.6,27.7,74.2,27.8L74.2,27.8z M74.1,23.6c-0.5,0-0.7,0.3-0.7,0.8v0.3h1.4v-0.3
		C74.8,23.9,74.5,23.6,74.1,23.6L74.1,23.6z"/>
	<path class="st0" d="M11.5,35.7h0.8v0.6h0.1c0.1-0.2,0.2-0.4,0.3-0.5c0.2-0.1,0.4-0.2,0.6-0.2c0.5,0,0.8,0.2,1,0.5
		c0.2,0.3,0.3,0.8,0.3,1.5s-0.1,1.1-0.3,1.5c-0.2,0.3-0.6,0.5-1,0.5c-0.2,0-0.4-0.1-0.6-0.2s-0.3-0.3-0.3-0.5h-0.1v2.1h-0.8V35.7
		L11.5,35.7z M13,38.9c0.3,0,0.5-0.1,0.6-0.2c0.1-0.2,0.2-0.4,0.2-0.7v-0.8c0-0.3-0.1-0.5-0.2-0.7c-0.1-0.2-0.3-0.2-0.6-0.2
		c-0.2,0-0.4,0.1-0.5,0.2c-0.1,0.1-0.2,0.3-0.2,0.5v1.4c0,0.2,0.1,0.3,0.2,0.5S12.8,38.9,13,38.9z"/>
	<path class="st0" d="M17,39.5c-0.2,0-0.5,0-0.7-0.1c-0.2-0.1-0.4-0.2-0.5-0.4c-0.1-0.2-0.2-0.4-0.3-0.6s-0.1-0.5-0.1-0.9
		s0-0.6,0.1-0.9s0.2-0.5,0.3-0.6c0.1-0.2,0.3-0.3,0.5-0.4c0.2-0.1,0.4-0.1,0.6-0.1c0.5,0,0.9,0.2,1.1,0.5c0.3,0.3,0.4,0.8,0.4,1.5
		v0.2h-2.3V38c0,0.3,0.1,0.5,0.2,0.7c0.1,0.2,0.4,0.2,0.6,0.2c0.2,0,0.4-0.1,0.6-0.2s0.3-0.2,0.4-0.4l0.4,0.4
		c-0.1,0.2-0.3,0.4-0.5,0.6S17.4,39.5,17,39.5L17,39.5z M17,36.2c-0.2,0-0.5,0.1-0.6,0.2c-0.1,0.2-0.2,0.4-0.2,0.7v0.2h1.5v-0.2
		C17.7,36.5,17.5,36.2,17,36.2z"/>
	<path class="st0" d="M21.6,38.8L21.6,38.8c-0.2,0.5-0.5,0.7-1,0.7c-0.3,0-0.6-0.1-0.8-0.3c-0.2-0.2-0.3-0.6-0.3-1v-2.5h0.8v2.4
		c0,0.6,0.2,0.8,0.6,0.8c0.2,0,0.4-0.1,0.5-0.2c0.1-0.1,0.2-0.3,0.2-0.5v-2.6h0.8v3.8h-0.8L21.6,38.8L21.6,38.8z"/>
	<path class="st0" d="M27.6,38.8L27.6,38.8c-0.2,0.2-0.3,0.4-0.4,0.5c-0.2,0.1-0.4,0.2-0.6,0.2c-0.5,0-0.8-0.2-1-0.5
		c-0.2-0.3-0.3-0.8-0.3-1.5s0.1-1.1,0.3-1.5c0.2-0.3,0.5-0.5,1-0.5c0.2,0,0.4,0.1,0.6,0.2c0.2,0.1,0.3,0.3,0.3,0.5h0.1v-2.2h0.8v5.4
		h-0.8V38.8L27.6,38.8z M26.8,38.9c0.2,0,0.4-0.1,0.5-0.2c0.1-0.1,0.2-0.3,0.2-0.5v-1.4c0-0.2-0.1-0.3-0.2-0.5s-0.3-0.2-0.5-0.2
		c-0.3,0-0.5,0.1-0.6,0.2c-0.1,0.2-0.2,0.4-0.2,0.7V38c0,0.3,0.1,0.5,0.2,0.7C26.4,38.8,26.6,38.9,26.8,38.9z"/>
	<path class="st0" d="M30.1,34c0.2,0,0.3,0,0.4,0.1c0.1,0.1,0.1,0.2,0.1,0.3v0.2c0,0.2-0.1,0.5-0.2,0.7c-0.1,0.2-0.3,0.4-0.5,0.6
		h-0.5c0.1-0.2,0.3-0.3,0.3-0.4s0.2-0.3,0.2-0.5c-0.2,0-0.4-0.2-0.4-0.4v-0.2c0-0.1,0-0.2,0.1-0.3C29.8,34,29.9,34,30.1,34z"/>
	<path class="st0" d="M32.6,39.5c-0.2,0-0.5,0-0.7-0.1c-0.2-0.1-0.4-0.2-0.5-0.4c-0.1-0.2-0.2-0.4-0.3-0.6s-0.1-0.5-0.1-0.9
		s0-0.6,0.1-0.9s0.2-0.5,0.3-0.6c0.1-0.2,0.3-0.3,0.5-0.4c0.2-0.1,0.4-0.1,0.7-0.1c0.5,0,0.9,0.2,1.1,0.5c0.3,0.3,0.4,0.8,0.4,1.5
		v0.2h-2.3V38c0,0.3,0.1,0.5,0.2,0.7c0.1,0.2,0.4,0.2,0.6,0.2c0.2,0,0.4-0.1,0.6-0.2s0.3-0.2,0.4-0.4l0.4,0.4
		c-0.1,0.2-0.3,0.4-0.5,0.6S32.9,39.5,32.6,39.5L32.6,39.5z M32.5,36.2c-0.2,0-0.5,0.1-0.6,0.2c-0.1,0.2-0.2,0.4-0.2,0.7v0.2h1.5
		v-0.2C33.3,36.5,33,36.2,32.5,36.2z M32.6,35.2L32.1,35l0.6-1.3l0.7,0.3L32.6,35.2z"/>
	<path class="st0" d="M35.1,39.4v-3.8h0.8v0.6h0.1c0.2-0.5,0.5-0.7,0.9-0.7s0.8,0.2,0.9,0.7h0.1c0.1-0.2,0.2-0.4,0.4-0.6
		c0.2-0.1,0.4-0.2,0.6-0.2c0.3,0,0.6,0.1,0.8,0.3c0.2,0.2,0.3,0.6,0.3,1v2.5h-0.8V37c0-0.3,0-0.5-0.2-0.6c-0.1-0.1-0.2-0.2-0.5-0.2
		c-0.2,0-0.3,0.1-0.5,0.2c-0.1,0.1-0.2,0.3-0.2,0.5v2.6h-0.8V37c0-0.3,0-0.5-0.2-0.6c-0.1-0.1-0.2-0.2-0.5-0.2
		c-0.2,0-0.3,0.1-0.5,0.2c-0.1,0.1-0.2,0.3-0.2,0.5v2.6L35.1,39.4L35.1,39.4z"/>
	<path class="st0" d="M41.5,34.9c-0.3,0-0.5-0.1-0.5-0.4v-0.1c0-0.3,0.2-0.4,0.5-0.4s0.5,0.1,0.5,0.4v0.1
		C42,34.8,41.8,34.9,41.5,34.9z M41.2,35.7h0.8v3.8h-0.8V35.7z"/>
	<path class="st0" d="M44.3,39.5c-0.3,0-0.6-0.1-0.8-0.2c-0.2-0.1-0.4-0.3-0.6-0.5l0.5-0.4c0.1,0.2,0.3,0.3,0.4,0.4
		c0.2,0.1,0.3,0.1,0.5,0.1s0.3-0.1,0.5-0.1c0.1-0.1,0.2-0.2,0.2-0.4c0-0.1,0-0.2-0.1-0.3s-0.2-0.1-0.4-0.2l-0.3-0.1
		c-0.4-0.1-0.7-0.2-0.8-0.4c-0.2-0.2-0.3-0.4-0.3-0.8c0-0.4,0.1-0.7,0.3-0.9c0.2-0.2,0.5-0.3,0.9-0.3c0.3,0,0.5,0.1,0.8,0.2
		s0.4,0.2,0.5,0.4l-0.5,0.4c-0.1-0.1-0.2-0.2-0.4-0.3s-0.3-0.1-0.5-0.1c-0.4,0-0.6,0.2-0.6,0.5c0,0.2,0,0.3,0.1,0.3
		c0.1,0.1,0.2,0.1,0.4,0.2l0.3,0.1c0.4,0.1,0.7,0.2,0.8,0.4c0.2,0.2,0.2,0.4,0.2,0.7c0,0.4-0.1,0.7-0.3,0.9S44.7,39.5,44.3,39.5
		L44.3,39.5z"/>
	<path class="st0" d="M47.8,39.5c-0.3,0-0.6-0.1-0.8-0.2c-0.2-0.1-0.4-0.3-0.6-0.5l0.5-0.4c0.1,0.2,0.3,0.3,0.4,0.4
		c0.2,0.1,0.3,0.1,0.5,0.1s0.3-0.1,0.5-0.1c0.1-0.1,0.2-0.2,0.2-0.4c0-0.1,0-0.2-0.1-0.3s-0.2-0.1-0.4-0.2l-0.3-0.1
		c-0.4-0.1-0.7-0.2-0.8-0.4c-0.2-0.2-0.3-0.4-0.3-0.8c0-0.4,0.1-0.7,0.3-0.9c0.2-0.2,0.5-0.3,0.9-0.3c0.3,0,0.5,0.1,0.8,0.2
		s0.4,0.2,0.5,0.4l-0.5,0.4c-0.1-0.1-0.2-0.2-0.4-0.3s-0.3-0.1-0.5-0.1c-0.4,0-0.6,0.2-0.6,0.5c0,0.2,0,0.3,0.1,0.3
		c0.1,0.1,0.2,0.1,0.4,0.2l0.3,0.1c0.4,0.1,0.7,0.2,0.8,0.4c0.2,0.2,0.2,0.4,0.2,0.7c0,0.4-0.1,0.7-0.3,0.9S48.2,39.5,47.8,39.5
		L47.8,39.5z"/>
	<path class="st0" d="M50.5,34.9c-0.3,0-0.4-0.1-0.4-0.4v-0.1c0-0.3,0.2-0.4,0.4-0.4s0.4,0.1,0.4,0.4v0.1
		C51,34.8,50.8,34.9,50.5,34.9z M50.2,35.7h0.8v3.8h-0.8V35.7z"/>
	<path class="st0" d="M53.5,39.5c-0.2,0-0.5,0-0.7-0.1c-0.2-0.1-0.4-0.2-0.5-0.4c-0.1-0.2-0.2-0.4-0.3-0.6s-0.1-0.5-0.1-0.9
		c0-0.3,0-0.6,0.1-0.9s0.2-0.5,0.3-0.6c0.1-0.2,0.3-0.3,0.5-0.4c0.2-0.1,0.4-0.1,0.7-0.1s0.4,0,0.7,0.1c0.2,0.1,0.4,0.2,0.5,0.4
		c0.1,0.2,0.2,0.4,0.3,0.6c0.1,0.2,0.1,0.6,0.1,0.9c0,0.3,0,0.6-0.1,0.9s-0.2,0.5-0.3,0.6c-0.1,0.2-0.3,0.3-0.5,0.4
		S53.8,39.5,53.5,39.5z M53.5,38.9c0.2,0,0.4-0.1,0.6-0.2c0.1-0.2,0.2-0.4,0.2-0.7v-0.9c0-0.3-0.1-0.5-0.2-0.7s-0.3-0.2-0.6-0.2
		s-0.4,0.1-0.6,0.2c-0.1,0.2-0.2,0.4-0.2,0.7V38c0,0.3,0.1,0.5,0.2,0.7C53.1,38.8,53.3,38.9,53.5,38.9z"/>
	<path class="st0" d="M56.1,39.4v-3.8h0.8v0.6H57c0.2-0.5,0.5-0.7,0.9-0.7c0.3,0,0.6,0.1,0.8,0.3c0.2,0.2,0.3,0.6,0.3,1v2.5h-0.8V37
		c0-0.3-0.1-0.5-0.2-0.6s-0.3-0.2-0.5-0.2c-0.2,0-0.4,0.1-0.5,0.2c-0.1,0.1-0.2,0.3-0.2,0.5v2.6L56.1,39.4L56.1,39.4z"/>
	<path class="st0" d="M61.3,39.5c-0.3,0-0.6-0.1-0.8-0.2c-0.2-0.1-0.4-0.3-0.6-0.5l0.5-0.4c0.1,0.2,0.3,0.3,0.4,0.4
		c0.2,0.1,0.3,0.1,0.5,0.1s0.3-0.1,0.5-0.1c0.1-0.1,0.2-0.2,0.2-0.4c0-0.1,0-0.2-0.1-0.3s-0.2-0.1-0.4-0.2l-0.3-0.1
		c-0.4-0.1-0.7-0.2-0.8-0.4c-0.2-0.2-0.3-0.4-0.3-0.8c0-0.4,0.1-0.7,0.3-0.9c0.2-0.2,0.5-0.3,0.9-0.3c0.3,0,0.5,0.1,0.8,0.2
		s0.4,0.2,0.5,0.4l-0.4,0.4c-0.1-0.1-0.2-0.2-0.4-0.3s-0.3-0.1-0.5-0.1c-0.4,0-0.6,0.2-0.6,0.5c0,0.2,0,0.3,0.1,0.3s0.2,0.1,0.4,0.2
		l0.3,0.1c0.4,0.1,0.7,0.2,0.8,0.4c0.2,0.2,0.2,0.4,0.2,0.7c0,0.4-0.1,0.7-0.3,0.9S61.8,39.5,61.3,39.5L61.3,39.5z"/>
	<path class="st0" d="M67.7,38.8L67.7,38.8c-0.1,0.2-0.3,0.4-0.4,0.5c-0.2,0.1-0.4,0.2-0.6,0.2c-0.4,0-0.8-0.2-1-0.5
		c-0.2-0.3-0.3-0.8-0.3-1.5s0.1-1.1,0.3-1.5c0.2-0.3,0.6-0.5,1-0.5c0.2,0,0.4,0.1,0.6,0.2c0.2,0.1,0.3,0.3,0.3,0.5h0.1v-2.2h0.8v5.4
		h-0.8V38.8L67.7,38.8z M66.9,38.9c0.2,0,0.4-0.1,0.5-0.2c0.1-0.1,0.2-0.3,0.2-0.5v-1.4c0-0.2-0.1-0.3-0.2-0.5s-0.3-0.2-0.5-0.2
		c-0.3,0-0.5,0.1-0.6,0.2c-0.1,0.2-0.2,0.4-0.2,0.7V38c0,0.3,0.1,0.5,0.2,0.7C66.5,38.8,66.7,38.9,66.9,38.9z"/>
	<path class="st0" d="M71.1,39.5c-0.2,0-0.5,0-0.7-0.1c-0.2-0.1-0.4-0.2-0.5-0.4c-0.1-0.2-0.2-0.4-0.3-0.6s-0.1-0.5-0.1-0.9
		s0-0.6,0.1-0.9s0.2-0.5,0.3-0.6c0.1-0.2,0.3-0.3,0.5-0.4c0.2-0.1,0.4-0.1,0.7-0.1c0.5,0,0.9,0.2,1.1,0.5c0.3,0.3,0.4,0.8,0.4,1.5
		v0.2h-2.3V38c0,0.3,0.1,0.5,0.2,0.7c0.2,0.2,0.4,0.2,0.6,0.2c0.2,0,0.4-0.1,0.6-0.2s0.3-0.2,0.4-0.4l0.4,0.4
		c-0.1,0.2-0.3,0.4-0.6,0.6S71.4,39.5,71.1,39.5L71.1,39.5z M71,36.2c-0.2,0-0.4,0.1-0.6,0.2c-0.1,0.2-0.2,0.4-0.2,0.7v0.2h1.5v-0.2
		C71.8,36.5,71.5,36.2,71,36.2z"/>
	<path class="st0" d="M13.3,48.3c-0.3,0-0.6-0.1-0.8-0.2s-0.4-0.3-0.6-0.5s-0.3-0.5-0.4-0.8s-0.1-0.7-0.1-1.2s0-0.9,0.1-1.2
		c0.1-0.3,0.2-0.6,0.4-0.8s0.4-0.4,0.6-0.5c0.2-0.1,0.5-0.2,0.8-0.2c0.4,0,0.8,0.1,1,0.3c0.3,0.2,0.5,0.5,0.6,0.8l-0.7,0.4
		c-0.1-0.3-0.2-0.5-0.4-0.6c-0.2-0.1-0.4-0.2-0.6-0.2c-0.4,0-0.6,0.1-0.8,0.4c-0.2,0.2-0.3,0.6-0.3,1v1.2c0,0.4,0.1,0.7,0.3,1
		c0.2,0.2,0.5,0.4,0.8,0.4c0.3,0,0.5-0.1,0.7-0.2c0.2-0.1,0.3-0.3,0.4-0.7l0.6,0.4c-0.2,0.4-0.4,0.7-0.6,0.9S13.7,48.3,13.3,48.3
		L13.3,48.3z"/>
	<path class="st0" d="M17.7,48.3c-0.3,0-0.6-0.1-0.8-0.2s-0.5-0.3-0.6-0.5s-0.3-0.5-0.4-0.8s-0.1-0.7-0.1-1.2s0-0.9,0.1-1.2
		c0.1-0.3,0.2-0.6,0.4-0.8s0.4-0.4,0.6-0.5c0.2-0.1,0.5-0.2,0.8-0.2s0.6,0.1,0.8,0.2c0.2,0.1,0.5,0.3,0.6,0.5s0.3,0.5,0.4,0.8
		s0.1,0.7,0.1,1.2s0,0.9-0.1,1.2s-0.2,0.6-0.4,0.8s-0.4,0.4-0.6,0.5C18.2,48.2,18,48.3,17.7,48.3z M17.7,47.6c0.4,0,0.7-0.1,0.8-0.3
		c0.2-0.2,0.3-0.6,0.3-1V45c0-0.4-0.1-0.8-0.3-1c-0.2-0.2-0.5-0.3-0.8-0.3s-0.6,0.1-0.9,0.3c-0.2,0.2-0.3,0.6-0.3,1v1.2
		c0,0.4,0.1,0.8,0.3,1C17,47.5,17.3,47.6,17.7,47.6z"/>
	<path class="st0" d="M22,48.2h-1.6v-0.4l0.7-0.8c0.1-0.1,0.2-0.2,0.3-0.3s0.1-0.2,0.1-0.3v-0.1c0-0.2-0.1-0.4-0.3-0.4
		c-0.1,0-0.2,0-0.3,0.1c-0.1,0.1-0.1,0.2-0.2,0.3l-0.3-0.1c0.1-0.2,0.2-0.3,0.3-0.4c0.1-0.1,0.3-0.2,0.5-0.2c0.3,0,0.5,0.1,0.6,0.2
		s0.2,0.3,0.2,0.5c0,0.1,0,0.2,0,0.2c0,0.1,0,0.1-0.1,0.2c0,0.1-0.1,0.2-0.2,0.2s-0.2,0.2-0.2,0.3l-0.6,0.6h1.2L22,48.2L22,48.2z"/>
	<path d="M12.9,154.3c-0.2,0-0.5,0-0.7-0.1s-0.4-0.2-0.5-0.4s-0.2-0.4-0.3-0.6s-0.1-0.5-0.1-0.9s0-0.6,0.1-0.9s0.2-0.5,0.3-0.6
		s0.3-0.3,0.5-0.4c0.2-0.1,0.4-0.1,0.6-0.1c0.5,0,0.9,0.2,1.1,0.5c0.3,0.3,0.4,0.8,0.4,1.5v0.2H12v0.2c0,0.3,0.1,0.5,0.2,0.7
		s0.4,0.2,0.6,0.2c0.2,0,0.4-0.1,0.6-0.1c0.1-0.1,0.3-0.2,0.4-0.4l0.4,0.4c-0.1,0.2-0.3,0.4-0.5,0.6S13.2,154.2,12.9,154.3
		L12.9,154.3z M12.8,150.9c-0.2,0-0.5,0.1-0.6,0.2s-0.2,0.4-0.2,0.7v0.1h1.5v-0.1C13.6,151.2,13.3,150.9,12.8,150.9z M12.9,149.9
		l-0.5-0.2l0.6-1.3l0.7,0.3L12.9,149.9L12.9,149.9z"/>
	<path d="M15.4,154.2v-3.8h0.8v0.6h0.1c0.1-0.5,0.5-0.7,0.9-0.7s0.8,0.2,0.9,0.7h0.1c0.1-0.2,0.2-0.4,0.4-0.6
		c0.2-0.1,0.4-0.2,0.6-0.2c0.3,0,0.6,0.1,0.8,0.4c0.2,0.2,0.3,0.6,0.3,1v2.5h-0.8v-2.4c0-0.3,0-0.5-0.2-0.6
		c-0.1-0.1-0.2-0.2-0.5-0.2c-0.2,0-0.3,0.1-0.5,0.2s-0.2,0.3-0.2,0.5v2.6h-0.8v-2.4c0-0.3,0-0.5-0.1-0.6s-0.2-0.2-0.5-0.2
		c-0.2,0-0.4,0.1-0.5,0.2s-0.2,0.3-0.2,0.5v2.6L15.4,154.2L15.4,154.2z"/>
	<path d="M21.8,149.7c-0.3,0-0.5-0.1-0.5-0.4v-0.1c0-0.3,0.2-0.4,0.5-0.4s0.5,0.1,0.5,0.4v0.1C22.3,149.5,22.1,149.7,21.8,149.7z
		 M21.5,150.4h0.8v3.8h-0.8V150.4z"/>
	<path d="M24.6,154.3c-0.3,0-0.6-0.1-0.8-0.2s-0.4-0.3-0.6-0.5l0.5-0.4c0.1,0.2,0.3,0.3,0.4,0.4s0.3,0.1,0.5,0.1s0.3-0.1,0.5-0.1
		s0.2-0.2,0.2-0.4c0-0.1,0-0.2-0.1-0.3s-0.2-0.1-0.4-0.2l-0.3-0.1c-0.4-0.1-0.7-0.2-0.8-0.4s-0.3-0.4-0.3-0.8c0-0.4,0.1-0.7,0.3-0.9
		s0.5-0.3,0.9-0.3c0.3,0,0.5,0.1,0.8,0.1c0.2,0.1,0.4,0.2,0.5,0.4l-0.5,0.4c-0.1-0.1-0.2-0.2-0.4-0.3s-0.3-0.1-0.5-0.1
		c-0.4,0-0.6,0.2-0.6,0.5c0,0.1,0,0.3,0.1,0.3c0.1,0.1,0.2,0.1,0.4,0.2l0.3,0.1c0.4,0.1,0.7,0.2,0.8,0.4c0.2,0.2,0.2,0.4,0.2,0.7
		c0,0.4-0.1,0.7-0.3,0.9S25,154.3,24.6,154.3L24.6,154.3z"/>
	<path d="M28.1,154.3c-0.3,0-0.6-0.1-0.8-0.2s-0.4-0.3-0.6-0.5l0.5-0.4c0.1,0.2,0.3,0.3,0.4,0.4s0.3,0.1,0.5,0.1s0.3-0.1,0.5-0.1
		s0.2-0.2,0.2-0.4c0-0.1,0-0.2-0.1-0.3s-0.2-0.1-0.4-0.2l-0.3-0.1c-0.4-0.1-0.7-0.2-0.8-0.4s-0.3-0.4-0.3-0.8c0-0.4,0.1-0.7,0.3-0.9
		s0.5-0.3,0.9-0.3c0.3,0,0.5,0.1,0.8,0.1c0.2,0.1,0.4,0.2,0.5,0.4l-0.5,0.4c-0.1-0.1-0.2-0.2-0.4-0.3s-0.3-0.1-0.5-0.1
		c-0.4,0-0.6,0.2-0.6,0.5c0,0.1,0,0.3,0.1,0.3c0.1,0.1,0.2,0.1,0.4,0.2l0.3,0.1c0.4,0.1,0.7,0.2,0.8,0.4c0.2,0.2,0.2,0.4,0.2,0.7
		c0,0.4-0.1,0.7-0.3,0.9S28.5,154.3,28.1,154.3L28.1,154.3z"/>
	<path d="M30.8,149.7c-0.3,0-0.5-0.1-0.5-0.4v-0.1c0-0.3,0.2-0.4,0.5-0.4s0.5,0.1,0.5,0.4v0.1C31.3,149.5,31.1,149.7,30.8,149.7z
		 M30.5,150.4h0.8v3.8h-0.8V150.4z"/>
	<path d="M33.8,154.3c-0.2,0-0.5,0-0.7-0.1c-0.2-0.1-0.4-0.2-0.5-0.4s-0.2-0.4-0.3-0.6c-0.1-0.2-0.1-0.6-0.1-0.9s0-0.6,0.1-0.9
		s0.2-0.5,0.3-0.6s0.3-0.3,0.5-0.4c0.2-0.1,0.4-0.1,0.7-0.1s0.5,0,0.7,0.1c0.2,0.1,0.4,0.2,0.5,0.4s0.2,0.4,0.3,0.6
		c0.1,0.2,0.1,0.6,0.1,0.9s0,0.6-0.1,0.9s-0.2,0.5-0.3,0.6c-0.1,0.2-0.3,0.3-0.5,0.4S34.1,154.3,33.8,154.3z M33.8,153.6
		c0.2,0,0.5-0.1,0.6-0.2s0.2-0.4,0.2-0.7v-0.9c0-0.3-0.1-0.5-0.2-0.7c-0.1-0.1-0.3-0.2-0.6-0.2s-0.5,0.1-0.6,0.2s-0.2,0.4-0.2,0.7
		v0.9c0,0.3,0.1,0.5,0.2,0.7C33.4,153.5,33.6,153.6,33.8,153.6z"/>
	<path d="M36.4,154.2v-3.8h0.8v0.6h0.1c0.2-0.5,0.5-0.7,0.9-0.7c0.3,0,0.6,0.1,0.8,0.4c0.2,0.2,0.3,0.6,0.3,1v2.5h-0.8v-2.4
		c0-0.3,0-0.5-0.2-0.6c-0.1-0.1-0.3-0.2-0.5-0.2c-0.2,0-0.4,0.1-0.5,0.2s-0.2,0.3-0.2,0.5v2.6L36.4,154.2L36.4,154.2z"/>
	<path d="M41.6,154.3c-0.3,0-0.6-0.1-0.8-0.2s-0.4-0.3-0.6-0.5l0.5-0.4c0.1,0.2,0.3,0.3,0.4,0.4s0.3,0.1,0.5,0.1s0.3-0.1,0.5-0.1
		s0.2-0.2,0.2-0.4c0-0.1,0-0.2-0.1-0.3s-0.2-0.1-0.4-0.2l-0.3-0.1c-0.4-0.1-0.7-0.2-0.8-0.4s-0.3-0.4-0.3-0.8c0-0.4,0.1-0.7,0.3-0.9
		s0.5-0.3,0.9-0.3c0.3,0,0.5,0.1,0.8,0.1c0.2,0.1,0.4,0.2,0.5,0.4l-0.5,0.4c-0.1-0.1-0.2-0.2-0.4-0.3s-0.3-0.1-0.5-0.1
		c-0.4,0-0.6,0.2-0.6,0.5c0,0.1,0,0.3,0.1,0.3c0.1,0.1,0.2,0.1,0.4,0.2l0.3,0.1c0.4,0.1,0.7,0.2,0.8,0.4c0.2,0.2,0.2,0.4,0.2,0.7
		c0,0.4-0.1,0.7-0.3,0.9S42.1,154.3,41.6,154.3L41.6,154.3z"/>
	<path d="M48,153.5L48,153.5c-0.2,0.2-0.3,0.4-0.4,0.5c-0.2,0.1-0.4,0.2-0.6,0.2c-0.5,0-0.8-0.2-1-0.5s-0.3-0.8-0.3-1.5
		s0.1-1.1,0.3-1.5s0.5-0.5,1-0.5c0.2,0,0.4,0.1,0.6,0.2c0.2,0.1,0.3,0.3,0.3,0.5H48v-2.2h0.8v5.4H48V153.5L48,153.5z M47.2,153.6
		c0.2,0,0.4-0.1,0.5-0.2s0.2-0.3,0.2-0.5v-1.4c0-0.2-0.1-0.4-0.2-0.5s-0.3-0.2-0.5-0.2c-0.3,0-0.5,0.1-0.6,0.2s-0.2,0.4-0.2,0.7v0.9
		c0,0.3,0.1,0.5,0.2,0.7C46.8,153.5,47,153.6,47.2,153.6z"/>
	<path d="M51.4,154.3c-0.2,0-0.5,0-0.7-0.1c-0.2-0.1-0.4-0.2-0.5-0.4s-0.2-0.4-0.3-0.6s-0.1-0.5-0.1-0.9s0-0.6,0.1-0.9
		s0.2-0.5,0.3-0.6s0.3-0.3,0.5-0.4c0.2-0.1,0.4-0.1,0.7-0.1c0.5,0,0.9,0.2,1.1,0.5c0.3,0.3,0.4,0.8,0.4,1.5v0.2h-2.3v0.2
		c0,0.3,0.1,0.5,0.2,0.7s0.4,0.2,0.6,0.2c0.2,0,0.4-0.1,0.6-0.1c0.2-0.1,0.3-0.2,0.4-0.4l0.4,0.4c-0.1,0.2-0.3,0.4-0.6,0.6
		S51.7,154.2,51.4,154.3L51.4,154.3z M51.3,150.9c-0.2,0-0.4,0.1-0.6,0.2s-0.2,0.4-0.2,0.7v0.1h1.5v-0.1
		C52.1,151.2,51.8,150.9,51.3,150.9z"/>
	<path d="M57.5,154.3c-0.3,0-0.6-0.1-0.8-0.1c-0.2-0.1-0.4-0.3-0.6-0.5s-0.3-0.5-0.4-0.8s-0.1-0.7-0.1-1.2s0-0.9,0.1-1.2
		c0.1-0.3,0.2-0.6,0.4-0.8s0.4-0.4,0.6-0.5s0.5-0.1,0.8-0.1c0.4,0,0.8,0.1,1,0.3s0.5,0.5,0.6,0.9l-0.7,0.4c-0.1-0.3-0.2-0.5-0.4-0.6
		c-0.2-0.1-0.4-0.2-0.6-0.2c-0.3,0-0.6,0.1-0.8,0.4c-0.2,0.2-0.3,0.6-0.3,1v1.2c0,0.4,0.1,0.7,0.3,1c0.2,0.2,0.5,0.4,0.8,0.4
		c0.3,0,0.5-0.1,0.7-0.2s0.3-0.4,0.4-0.7l0.6,0.4c-0.2,0.4-0.4,0.7-0.6,0.9C58.2,154.2,57.9,154.3,57.5,154.3L57.5,154.3z"/>
	<path d="M61.9,154.3c-0.3,0-0.6-0.1-0.8-0.1s-0.4-0.3-0.6-0.5c-0.2-0.2-0.3-0.5-0.4-0.8s-0.1-0.7-0.1-1.2s0-0.9,0.1-1.2
		c0.1-0.3,0.2-0.6,0.4-0.8s0.4-0.4,0.6-0.5s0.5-0.1,0.8-0.1s0.6,0.1,0.8,0.1c0.2,0.1,0.4,0.3,0.6,0.5c0.2,0.2,0.3,0.5,0.4,0.8
		s0.1,0.7,0.1,1.2s0,0.9-0.1,1.2s-0.2,0.6-0.4,0.8s-0.4,0.4-0.6,0.5C62.5,154.2,62.2,154.3,61.9,154.3z M61.9,153.6
		c0.4,0,0.7-0.1,0.8-0.4c0.2-0.2,0.3-0.6,0.3-1V151c0-0.4-0.1-0.8-0.3-1c-0.2-0.2-0.5-0.4-0.8-0.4s-0.7,0.1-0.8,0.4
		c-0.2,0.2-0.3,0.6-0.3,1v1.2c0,0.4,0.1,0.8,0.3,1C61.2,153.5,61.5,153.6,61.9,153.6z"/>
	<path d="M66.3,154.2h-1.6v-0.4l0.7-0.8c0.1-0.1,0.2-0.2,0.3-0.3s0.1-0.2,0.1-0.3v-0.1c0-0.2-0.1-0.4-0.3-0.4c-0.1,0-0.2,0-0.3,0.1
		s-0.1,0.2-0.2,0.3l-0.3-0.1c0.1-0.2,0.2-0.3,0.3-0.4c0.1-0.1,0.3-0.1,0.5-0.1c0.3,0,0.4,0.1,0.6,0.2s0.2,0.3,0.2,0.5
		c0,0.1,0,0.2,0,0.2c0,0.1,0,0.1-0.1,0.2s-0.1,0.1-0.2,0.2c-0.1,0.1-0.2,0.2-0.2,0.3l-0.6,0.6h1.2L66.3,154.2L66.3,154.2z"/>
	<path d="M12.4,162.9c-0.3,0-0.5-0.1-0.6-0.2c-0.1-0.1-0.2-0.3-0.2-0.6v-2.4h-0.5v-0.6h0.3c0.1,0,0.2,0,0.2-0.1
		c0-0.1,0.1-0.1,0.1-0.3v-0.7h0.7v1h0.7v0.6h-0.7v2.6h0.7v0.6L12.4,162.9L12.4,162.9z"/>
	<path d="M14.1,162.9v-3.8h0.8v0.8H15c0-0.2,0.1-0.4,0.3-0.6s0.3-0.2,0.6-0.2H16v0.8h-0.3c-0.3,0-0.5,0.1-0.6,0.1
		c-0.1,0.1-0.2,0.3-0.2,0.5v2.4L14.1,162.9L14.1,162.9z"/>
	<path d="M18.3,163c-0.2,0-0.5,0-0.7-0.1s-0.4-0.2-0.5-0.4s-0.2-0.4-0.3-0.6s-0.1-0.5-0.1-0.9s0-0.6,0.1-0.9s0.2-0.5,0.3-0.6
		s0.3-0.3,0.5-0.4c0.2-0.1,0.4-0.1,0.7-0.1c0.5,0,0.9,0.2,1.1,0.5c0.3,0.3,0.4,0.8,0.4,1.5v0.2h-2.3v0.2c0,0.3,0.1,0.5,0.2,0.7
		c0.2,0.2,0.4,0.2,0.6,0.2c0.2,0,0.4-0.1,0.6-0.1c0.2-0.1,0.3-0.2,0.4-0.4l0.4,0.4c-0.1,0.2-0.3,0.4-0.5,0.6S18.6,163,18.3,163
		L18.3,163z M17.4,157.5l0.7-0.3l0.6,1.3l-0.5,0.2L17.4,157.5L17.4,157.5z M18.2,159.6c-0.2,0-0.5,0.1-0.6,0.2s-0.2,0.4-0.2,0.7v0.1
		H19v-0.1C19,159.9,18.7,159.6,18.2,159.6z"/>
	<path d="M21.9,163c-0.3,0-0.6-0.1-0.8-0.2s-0.4-0.3-0.6-0.5l0.5-0.4c0.1,0.2,0.3,0.3,0.4,0.4s0.3,0.1,0.5,0.1s0.3-0.1,0.5-0.1
		s0.2-0.2,0.2-0.4c0-0.1,0-0.2-0.1-0.3s-0.2-0.1-0.4-0.2l-0.3-0.1c-0.4-0.1-0.7-0.2-0.8-0.4s-0.3-0.4-0.3-0.8c0-0.4,0.1-0.7,0.3-0.9
		s0.5-0.3,0.9-0.3c0.3,0,0.5,0.1,0.8,0.1c0.2,0.1,0.4,0.2,0.5,0.4l-0.5,0.4c-0.1-0.1-0.2-0.2-0.4-0.3s-0.3-0.1-0.5-0.1
		c-0.4,0-0.6,0.2-0.6,0.5c0,0.1,0,0.3,0.1,0.3c0.1,0.1,0.2,0.1,0.4,0.2l0.3,0.1c0.4,0.1,0.7,0.2,0.8,0.4c0.2,0.2,0.2,0.4,0.2,0.7
		c0,0.4-0.1,0.7-0.3,0.9S22.3,163,21.9,163L21.9,163z"/>
	<path d="M26.5,158.4c-0.3,0-0.5-0.1-0.5-0.4v-0.1c0-0.3,0.2-0.4,0.5-0.4s0.5,0.1,0.5,0.4v0.1C26.9,158.3,26.8,158.4,26.5,158.4z
		 M26.1,159.1h0.8v3.8h-0.8V159.1z"/>
	<path d="M28.2,162.9v-3.8h0.8v0.6H29c0.2-0.5,0.5-0.7,0.9-0.7s0.8,0.2,0.9,0.7h0.1c0.1-0.2,0.2-0.4,0.4-0.6
		c0.2-0.1,0.4-0.2,0.6-0.2c0.3,0,0.6,0.1,0.8,0.4c0.2,0.2,0.3,0.6,0.3,1v2.5h-0.8v-2.4c0-0.3,0-0.5-0.2-0.6
		c-0.1-0.1-0.2-0.2-0.5-0.2c-0.2,0-0.3,0.1-0.5,0.2s-0.2,0.3-0.2,0.5v2.6h-0.8v-2.4c0-0.3,0-0.5-0.2-0.6c-0.1-0.1-0.2-0.2-0.5-0.2
		c-0.2,0-0.3,0.1-0.5,0.2s-0.2,0.3-0.2,0.5v2.6L28.2,162.9L28.2,162.9z"/>
	<path d="M34.2,159.1H35v0.6h0.1c0.1-0.2,0.2-0.4,0.3-0.5s0.4-0.2,0.6-0.2c0.5,0,0.8,0.2,1,0.5s0.3,0.8,0.3,1.5s-0.1,1.1-0.3,1.5
		s-0.6,0.5-1,0.5c-0.2,0-0.4-0.1-0.6-0.2s-0.3-0.3-0.3-0.5H35v2.1h-0.8V159.1L34.2,159.1z M35.7,162.4c0.3,0,0.5-0.1,0.6-0.2
		s0.2-0.4,0.2-0.7v-0.9c0-0.3-0.1-0.5-0.2-0.7c-0.1-0.2-0.3-0.2-0.6-0.2c-0.2,0-0.4,0.1-0.5,0.2s-0.2,0.3-0.2,0.5v1.4
		c0,0.2,0.1,0.4,0.2,0.5S35.5,162.4,35.7,162.4z"/>
	<path d="M39.7,163c-0.2,0-0.5,0-0.7-0.1c-0.2-0.1-0.4-0.2-0.5-0.4s-0.2-0.4-0.3-0.6c-0.1-0.2-0.1-0.6-0.1-0.9s0-0.6,0.1-0.9
		s0.2-0.5,0.3-0.6s0.3-0.3,0.5-0.4c0.2-0.1,0.4-0.1,0.7-0.1s0.5,0,0.7,0.1c0.2,0.1,0.4,0.2,0.5,0.4s0.2,0.4,0.3,0.6
		c0.1,0.2,0.1,0.6,0.1,0.9s0,0.6-0.1,0.9s-0.2,0.5-0.3,0.6c-0.1,0.2-0.3,0.3-0.5,0.4S39.9,163,39.7,163z M39.7,162.4
		c0.2,0,0.5-0.1,0.6-0.2s0.2-0.4,0.2-0.7v-0.9c0-0.3-0.1-0.5-0.2-0.7c-0.1-0.1-0.3-0.2-0.6-0.2s-0.5,0.1-0.6,0.2s-0.2,0.4-0.2,0.7
		v0.9c0,0.3,0.1,0.5,0.2,0.7C39.3,162.3,39.5,162.4,39.7,162.4z"/>
	<path d="M42.3,162.9v-3.8h0.8v0.8h0.1c0-0.2,0.2-0.4,0.3-0.6s0.3-0.2,0.6-0.2h0.2v0.8h-0.3c-0.3,0-0.5,0.1-0.6,0.1
		c-0.1,0.1-0.2,0.3-0.2,0.5v2.4L42.3,162.9L42.3,162.9z"/>
	<path d="M46.1,162.9c-0.3,0-0.5-0.1-0.6-0.2s-0.2-0.3-0.2-0.6v-2.4h-0.5v-0.6h0.3c0.1,0,0.2,0,0.2-0.1c0-0.1,0.1-0.1,0.1-0.3v-0.7
		h0.7v1h0.7v0.6h-0.7v2.6h0.7v0.6L46.1,162.9L46.1,162.9z"/>
	<path d="M50.3,162.9c-0.2,0-0.3-0.1-0.4-0.1c-0.1-0.1-0.2-0.3-0.2-0.5h-0.1c-0.1,0.2-0.2,0.4-0.3,0.5c-0.2,0.1-0.4,0.2-0.6,0.2
		c-0.4,0-0.6-0.1-0.8-0.3c-0.2-0.2-0.3-0.5-0.3-0.8c0-0.4,0.1-0.7,0.4-0.9s0.6-0.3,1.1-0.3h0.6v-0.4c0-0.2-0.1-0.4-0.2-0.5
		c-0.1-0.1-0.3-0.2-0.5-0.2c-0.2,0-0.3,0-0.5,0.1c-0.1,0.1-0.2,0.2-0.3,0.4l-0.4-0.4c0.1-0.2,0.3-0.4,0.5-0.5
		c0.2-0.1,0.5-0.2,0.8-0.2c0.5,0,0.8,0.1,1,0.3c0.2,0.2,0.3,0.6,0.3,1v2h0.4v0.6L50.3,162.9L50.3,162.9z M48.9,162.4
		c0.1,0,0.2,0,0.3-0.1s0.2-0.1,0.2-0.1c0.1-0.1,0.1-0.1,0.2-0.2s0.1-0.2,0.1-0.3v-0.5h-0.6c-0.5,0-0.7,0.2-0.7,0.5v0.2
		c0,0.2,0,0.3,0.2,0.4C48.6,162.4,48.7,162.4,48.9,162.4L48.9,162.4z"/>
	<path d="M51.7,162.9v-3.8h0.8v0.6h0.1c0.2-0.5,0.5-0.7,0.9-0.7c0.3,0,0.6,0.1,0.8,0.4c0.2,0.2,0.3,0.6,0.3,1v2.5h-0.8v-2.4
		c0-0.3-0.1-0.5-0.2-0.6s-0.3-0.2-0.5-0.2c-0.2,0-0.4,0.1-0.5,0.2s-0.2,0.3-0.2,0.5v2.6L51.7,162.9L51.7,162.9z"/>
	<path d="M56.7,162.9c-0.3,0-0.4-0.1-0.6-0.2s-0.2-0.3-0.2-0.6v-2.4h-0.5v-0.6h0.3c0.1,0,0.2,0,0.2-0.1c0-0.1,0.1-0.1,0.1-0.3v-0.7
		h0.7v1h0.7v0.6h-0.7v2.6h0.7v0.6L56.7,162.9L56.7,162.9z"/>
	<path d="M59.8,163c-0.2,0-0.5,0-0.7-0.1c-0.2-0.1-0.4-0.2-0.5-0.4s-0.2-0.4-0.3-0.6s-0.1-0.5-0.1-0.9s0-0.6,0.1-0.9
		s0.2-0.5,0.3-0.6s0.3-0.3,0.5-0.4c0.2-0.1,0.4-0.1,0.7-0.1c0.5,0,0.9,0.2,1.1,0.5c0.3,0.3,0.4,0.8,0.4,1.5v0.2H59v0.2
		c0,0.3,0.1,0.5,0.2,0.7s0.4,0.2,0.6,0.2c0.2,0,0.4-0.1,0.6-0.1c0.2-0.1,0.3-0.2,0.4-0.4l0.4,0.4c-0.1,0.2-0.3,0.4-0.6,0.6
		S60.1,163,59.8,163L59.8,163z M59.8,159.6c-0.2,0-0.4,0.1-0.6,0.2s-0.2,0.4-0.2,0.7v0.1h1.5v-0.1C60.5,160,60.2,159.6,59.8,159.6z"
		/>
	<path d="M63.4,163c-0.3,0-0.6-0.1-0.8-0.2s-0.4-0.3-0.6-0.5l0.5-0.4c0.1,0.2,0.3,0.3,0.4,0.4s0.3,0.1,0.5,0.1s0.3-0.1,0.5-0.1
		s0.2-0.2,0.2-0.4c0-0.1,0-0.2-0.1-0.3s-0.2-0.1-0.4-0.2l-0.3-0.1c-0.4-0.1-0.7-0.2-0.8-0.4s-0.3-0.4-0.3-0.8c0-0.4,0.1-0.7,0.3-0.9
		c0.2-0.2,0.5-0.3,0.9-0.3c0.3,0,0.5,0.1,0.8,0.1c0.2,0.1,0.4,0.2,0.5,0.4l-0.4,0.4c-0.1-0.1-0.2-0.2-0.4-0.3s-0.3-0.1-0.5-0.1
		c-0.4,0-0.6,0.2-0.6,0.5c0,0.1,0,0.3,0.1,0.3c0.1,0.1,0.2,0.1,0.4,0.2l0.3,0.1c0.4,0.1,0.7,0.2,0.8,0.4s0.2,0.4,0.2,0.7
		c0,0.4-0.1,0.7-0.3,0.9S63.9,163,63.4,163L63.4,163z"/>
</g>
</svg>
