<?xml version="1.0" encoding="UTF-8"?><svg id="Calque_1" xmlns="http://www.w3.org/2000/svg" viewBox="0 0 189.18 258.66"><defs><style>.cls-1{fill:#c3d9ef;}</style></defs><path d="m28.84,33.9l-.81-1.57h-.13l-.81,1.57-.99-.72,1.25-1.26-.03-.11-1.76-.29.38-1.14,1.59.81.09-.07-.27-1.77h1.23l-.27,1.77.09.07,1.59-.81.38,1.14-1.76.29-.03.11,1.25,1.26-.99.72Z"/><path d="m31.55,29.81h2.31c.4,0,.76.06,1.08.18.32.12.59.32.81.58.22.26.39.6.51,1.02.12.41.18.92.18,1.51s-.06,1.09-.18,1.51c-.12.42-.29.75-.51,1.02-.22.26-.49.46-.81.58-.32.12-.68.18-1.08.18h-2.31v-6.58Zm2.31,5.4c.76,0,1.14-.44,1.14-1.32v-1.58c0-.88-.38-1.32-1.14-1.32h-.96v4.22h.96Z"/><path d="m39.57,36.5c-.69,0-1.21-.21-1.57-.63-.35-.42-.53-1.07-.53-1.95s.18-1.53.53-1.96c.35-.42.88-.64,1.57-.64s1.21.21,1.57.64.53,1.08.53,1.96-.18,1.53-.53,1.95-.88.63-1.57.63Zm0-1.05c.48,0,.73-.28.73-.85v-1.39c0-.57-.24-.85-.73-.85s-.73.28-.73.85v1.39c0,.57.24.85.73.85Z"/><path d="m42.87,36.38v-4.95h1.32v.84h.15c.04-.13.09-.25.15-.37.06-.11.14-.21.24-.3.09-.09.2-.16.33-.21.13-.05.27-.08.43-.08.45,0,.79.15,1.02.45.24.3.35.71.35,1.25v3.36h-1.32v-3.11c0-.58-.2-.88-.61-.88-.2,0-.38.06-.52.18-.15.12-.22.29-.22.51v3.29h-1.32Z"/><path d="m49.81,36.38c-.45,0-.78-.1-.98-.3-.2-.2-.31-.52-.31-.96v-2.66h-.62v-1.03h.3c.18,0,.29-.04.36-.11.06-.08.09-.2.09-.37v-.86h1.19v1.34h.87v1.03h-.87v2.89h.77v1.03h-.8Z"/><path d="m56.12,36.5c-.68,0-1.22-.22-1.63-.65-.41-.43-.61-1.08-.61-1.94s.18-1.53.53-1.96c.35-.42.88-.64,1.57-.64s1.21.21,1.57.63.53,1.07.53,1.95v.32h-2.83v.31c0,.28.08.5.25.66s.4.25.7.25c.25,0,.45-.05.63-.16.17-.11.33-.26.48-.46l.67.79c-.2.27-.46.49-.77.64-.31.16-.68.24-1.1.24Zm-.13-4.18c-.48,0-.73.28-.73.84v.3h1.45v-.3c0-.56-.24-.84-.73-.84Zm.15-1.39l-.77-.37.87-1.87,1.12.55-1.22,1.69Z"/><path d="m59.28,36.38v-4.95h1.32v.84h.15c.04-.13.09-.25.16-.37.07-.11.14-.21.24-.3.09-.09.2-.16.33-.21.13-.05.27-.08.43-.08.32,0,.58.09.76.26s.33.42.41.74h.12c.11-.35.27-.6.5-.76.23-.16.49-.24.8-.24.42,0,.74.15.97.45.22.3.33.72.33,1.24v3.36h-1.32v-3.11c0-.58-.19-.88-.57-.88-.19,0-.36.06-.5.18s-.21.29-.21.51v3.29h-1.32v-3.11c0-.58-.19-.88-.57-.88-.19,0-.36.06-.5.18s-.21.29-.21.51v3.29h-1.32Z"/><path d="m67.89,30.83c-.27,0-.47-.06-.59-.17s-.18-.27-.18-.48v-.21c0-.2.06-.36.18-.48s.32-.17.59-.17.47.06.59.17c.12.12.18.27.18.48v.21c0,.2-.06.36-.18.48-.12.12-.32.17-.59.17Zm-.66.6h1.32v4.95h-1.32v-4.95Z"/><path d="m71.58,36.5c-.81,0-1.46-.29-1.94-.88l.78-.78c.3.43.7.64,1.19.64.42,0,.63-.17.63-.51,0-.13-.03-.23-.1-.31s-.17-.12-.33-.16l-.5-.09c-.53-.1-.92-.27-1.15-.5-.24-.24-.35-.57-.35-1,0-.52.15-.92.46-1.18.31-.27.76-.4,1.35-.4.4,0,.74.06,1.03.18s.55.31.77.56l-.75.77c-.28-.33-.63-.5-1.04-.5-.38,0-.57.17-.57.51,0,.14.03.24.1.31.07.07.18.12.34.15l.52.09c.52.09.9.25,1.13.48.23.22.34.54.34.96,0,.53-.17.94-.5,1.23-.33.29-.8.43-1.4.43Z"/><path d="m76.13,36.5c-.81,0-1.46-.29-1.94-.88l.78-.78c.3.43.7.64,1.19.64.42,0,.63-.17.63-.51,0-.13-.03-.23-.1-.31s-.17-.12-.33-.16l-.5-.09c-.53-.1-.92-.27-1.15-.5-.24-.24-.35-.57-.35-1,0-.52.15-.92.46-1.18.31-.27.76-.4,1.35-.4.4,0,.74.06,1.03.18s.55.31.77.56l-.75.77c-.28-.33-.63-.5-1.04-.5-.38,0-.57.17-.57.51,0,.14.03.24.1.31.07.07.18.12.34.15l.52.09c.52.09.9.25,1.13.48.23.22.34.54.34.96,0,.53-.17.94-.5,1.23-.33.29-.8.43-1.4.43Z"/><path d="m79.86,30.83c-.27,0-.47-.06-.59-.17s-.18-.27-.18-.48v-.21c0-.2.06-.36.18-.48s.32-.17.59-.17.47.06.59.17c.12.12.18.27.18.48v.21c0,.2-.06.36-.18.48-.12.12-.32.17-.59.17Zm-.66.6h1.32v4.95h-1.32v-4.95Z"/><path d="m83.81,36.5c-.69,0-1.21-.21-1.57-.63-.35-.42-.53-1.07-.53-1.95s.18-1.53.53-1.96c.35-.42.88-.64,1.57-.64s1.21.21,1.57.64.53,1.08.53,1.96-.18,1.53-.53,1.95-.88.63-1.57.63Zm0-1.05c.48,0,.73-.28.73-.85v-1.39c0-.57-.24-.85-.73-.85s-.73.28-.73.85v1.39c0,.57.24.85.73.85Z"/><path d="m87.11,36.38v-4.95h1.32v.84h.15c.04-.13.09-.25.15-.37.06-.11.14-.21.24-.3.09-.09.2-.16.33-.21.13-.05.27-.08.43-.08.45,0,.79.15,1.02.45.24.3.35.71.35,1.25v3.36h-1.32v-3.11c0-.58-.2-.88-.61-.88-.2,0-.38.06-.52.18-.15.12-.22.29-.22.51v3.29h-1.32Z"/><path d="m94.09,36.5c-.81,0-1.46-.29-1.94-.88l.78-.78c.3.43.7.64,1.19.64.42,0,.63-.17.63-.51,0-.13-.03-.23-.1-.31s-.17-.12-.33-.16l-.5-.09c-.53-.1-.92-.27-1.15-.5-.24-.24-.35-.57-.35-1,0-.52.15-.92.46-1.18.31-.27.76-.4,1.35-.4.4,0,.74.06,1.03.18s.55.31.77.56l-.75.77c-.28-.33-.63-.5-1.04-.5-.38,0-.57.17-.57.51,0,.14.03.24.1.31.07.07.18.12.34.15l.52.09c.52.09.9.25,1.13.48.23.22.34.54.34.96,0,.53-.17.94-.5,1.23-.33.29-.8.43-1.4.43Z"/><path d="m102.19,35.56h-.15c-.03.13-.08.25-.15.37-.07.11-.15.21-.25.3-.1.08-.21.15-.34.2-.13.05-.25.07-.39.07-.58,0-1-.22-1.26-.65-.26-.43-.4-1.08-.4-1.94s.13-1.51.4-1.94c.27-.43.69-.65,1.26-.65.13,0,.26.02.39.07.13.05.24.11.34.2.1.08.19.18.25.3.07.11.12.24.15.37h.15v-2.85h1.32v6.97h-1.32v-.82Zm-.75-.14c.24,0,.42-.05.56-.16s.2-.27.2-.49v-1.71c0-.22-.07-.38-.2-.49s-.32-.17-.56-.17-.44.08-.59.23c-.15.15-.22.37-.22.66v1.25c0,.28.07.5.22.66.15.15.34.23.59.23Z"/><path d="m106.94,36.5c-.68,0-1.22-.22-1.62-.65-.41-.43-.61-1.08-.61-1.94s.18-1.53.53-1.96c.36-.42.88-.64,1.57-.64s1.21.21,1.57.63c.35.42.53,1.07.53,1.95v.32h-2.83v.31c0,.28.08.5.25.66.17.17.4.25.7.25.24,0,.45-.05.63-.16s.33-.26.48-.46l.67.79c-.2.27-.46.49-.77.64-.31.16-.68.24-1.1.24Zm-.13-4.18c-.48,0-.73.28-.73.84v.3h1.45v-.3c0-.56-.24-.84-.73-.84Z"/><path d="m116.6,36.77c0,.26-.04.49-.11.69s-.21.37-.39.51c-.19.14-.44.24-.75.31-.31.07-.71.1-1.19.1-.41,0-.75-.03-1.02-.08-.27-.05-.49-.13-.65-.23-.17-.1-.28-.22-.35-.36s-.1-.31-.1-.49c0-.24.07-.43.22-.57.14-.14.35-.23.63-.28v-.2c-.24-.04-.41-.14-.52-.29-.11-.15-.16-.33-.16-.55,0-.11.02-.21.07-.3.05-.09.11-.16.19-.23.08-.06.17-.12.27-.16s.2-.08.31-.1v-.13c-.28-.13-.48-.32-.6-.56-.13-.24-.19-.53-.19-.87,0-.52.15-.93.45-1.23.3-.29.79-.44,1.48-.44.13,0,.26.01.39.03s.25.05.36.09v-.18c0-.25.06-.44.18-.56s.29-.18.51-.18h.71v.99h-1v.15c.26.11.45.27.59.5s.2.5.2.82c0,.52-.15.92-.45,1.21-.3.29-.8.44-1.49.44-.16,0-.3,0-.44-.02-.13-.02-.27-.04-.39-.07-.1.09-.15.23-.15.42,0,.13.04.22.12.28.08.06.21.09.4.09h1.33c.56,0,.96.12,1.2.37.24.25.36.6.36,1.05Zm-1.23.17c0-.15-.05-.27-.16-.35-.1-.08-.27-.12-.51-.12h-1.54c-.04.06-.08.14-.1.22-.02.08-.03.17-.03.26,0,.18.06.32.19.42.13.1.37.14.71.14h.53c.35,0,.58-.05.71-.14.13-.09.19-.23.19-.42Zm-1.19-3.18c.26,0,.44-.06.55-.18.11-.12.17-.29.17-.53v-.15c0-.23-.05-.41-.17-.53-.11-.12-.29-.18-.55-.18s-.44.06-.55.18c-.11.12-.17.3-.17.53v.15c0,.23.06.41.17.53.11.12.29.18.55.18Z"/><path d="m120.72,36.38c-.51,0-.79-.29-.84-.86h-.12c-.05.3-.19.54-.41.71s-.5.26-.84.26c-.45,0-.78-.13-1.01-.38-.23-.25-.34-.61-.34-1.06,0-.54.17-.93.5-1.18.33-.24.79-.37,1.38-.37h.72v-.38c0-.26-.05-.45-.16-.57-.11-.12-.29-.19-.54-.19-.22,0-.4.05-.55.16-.15.11-.28.25-.39.43l-.78-.7c.2-.3.45-.53.74-.69s.66-.25,1.11-.25c.65,0,1.12.15,1.43.45.31.3.46.75.46,1.35v2.23h.41v1.03h-.76Zm-1.68-.81c.19,0,.36-.05.5-.16s.21-.28.21-.51v-.61h-.59c-.45,0-.68.19-.68.57v.18c0,.19.05.33.15.41s.23.13.41.13Z"/><path d="m122.42,36.38v-1.04l2.18-2.88h-2.1v-1.03h3.58v1.04l-2.2,2.88h2.25v1.03h-3.71Z"/><path d="m29.18,47.69c-.52,0-.79-.29-.84-.86h-.12c-.05.3-.19.54-.41.71-.22.17-.5.26-.84.26-.45,0-.78-.13-1.01-.38s-.34-.61-.34-1.06c0-.54.17-.93.49-1.18.33-.24.79-.37,1.38-.37h.72v-.38c0-.26-.05-.45-.16-.57-.11-.12-.29-.19-.54-.19-.22,0-.4.05-.55.16-.15.11-.28.25-.39.43l-.78-.7c.2-.3.45-.53.74-.69.29-.17.66-.25,1.11-.25.65,0,1.12.15,1.43.45.31.3.46.75.46,1.35v2.23h.41v1.03h-.76Zm-2.88-7.14l1.12-.55.87,1.87-.77.37-1.22-1.69Zm1.21,6.33c.19,0,.36-.05.5-.16.14-.11.21-.28.21-.51v-.61h-.59c-.45,0-.68.19-.68.57v.18c0,.19.05.33.15.41.1.09.23.13.41.13Z"/><path d="m35.39,47.8c-.68,0-1.22-.22-1.63-.65-.41-.43-.61-1.08-.61-1.94s.18-1.53.53-1.96c.35-.42.88-.64,1.57-.64s1.21.21,1.57.63.53,1.07.53,1.95v.32h-2.83v.31c0,.28.08.5.25.66s.4.25.7.25c.25,0,.45-.05.63-.16.17-.11.33-.26.48-.46l.67.79c-.2.27-.46.49-.77.64-.31.16-.68.24-1.1.24Zm-.13-4.18c-.48,0-.73.28-.73.84v.3h1.45v-.3c0-.56-.24-.84-.73-.84Z"/><path d="m38.79,43.77h-.62v-1.03h.62v-.58c0-.49.11-.85.33-1.09.22-.24.56-.35,1.02-.35h.87v1.03h-.9v1h.9v1.03h-.9v3.92h-1.32v-3.92Z"/><path d="m42.34,43.77h-.62v-1.03h.62v-.58c0-.49.11-.85.33-1.09.22-.24.56-.35,1.02-.35h.87v1.03h-.9v1h.9v1.03h-.9v3.92h-1.32v-3.92Z"/><path d="m47.56,47.8c-.68,0-1.22-.22-1.63-.65-.41-.43-.61-1.08-.61-1.94s.18-1.53.53-1.96c.35-.42.88-.64,1.57-.64s1.21.21,1.57.63.53,1.07.53,1.95v.32h-2.83v.31c0,.28.08.5.25.66s.4.25.7.25c.25,0,.45-.05.63-.16.17-.11.33-.26.48-.46l.67.79c-.2.27-.46.49-.77.64-.31.16-.68.24-1.1.24Zm-.13-4.18c-.48,0-.73.28-.73.84v.3h1.45v-.3c0-.56-.24-.84-.73-.84Z"/><path d="m52.25,47.69c-.45,0-.78-.1-.98-.3-.2-.2-.31-.52-.31-.96v-2.66h-.62v-1.03h.3c.18,0,.29-.04.36-.11.06-.08.09-.2.09-.37v-.86h1.19v1.34h.87v1.03h-.87v2.89h.77v1.03h-.8Z"/><path d="m59.32,46.87h-.15c-.03.13-.08.25-.15.37-.07.11-.15.21-.25.3-.1.08-.21.15-.34.2-.13.05-.25.07-.39.07-.58,0-1-.22-1.26-.65-.26-.43-.4-1.08-.4-1.94s.13-1.51.4-1.94.69-.65,1.26-.65c.13,0,.26.02.39.07.13.05.24.11.34.2.1.08.19.18.25.3.07.11.12.24.15.37h.15v-2.85h1.32v6.97h-1.32v-.82Zm-.75-.14c.24,0,.42-.05.56-.16s.2-.27.2-.49v-1.71c0-.22-.07-.38-.2-.49s-.32-.17-.56-.17-.44.08-.59.23c-.15.15-.22.37-.22.66v1.25c0,.28.07.5.22.66s.34.23.59.23Z"/><path d="m64.07,47.8c-.68,0-1.22-.22-1.63-.65-.41-.43-.61-1.08-.61-1.94s.18-1.53.53-1.96c.35-.42.88-.64,1.57-.64s1.21.21,1.57.63.53,1.07.53,1.95v.32h-2.83v.31c0,.28.08.5.25.66s.4.25.7.25c.25,0,.45-.05.63-.16.17-.11.33-.26.48-.46l.67.79c-.2.27-.46.49-.77.64-.31.16-.68.24-1.1.24Zm-.13-4.18c-.48,0-.73.28-.73.84v.3h1.45v-.3c0-.56-.24-.84-.73-.84Z"/><path d="m71.12,47.8c-.81,0-1.46-.29-1.94-.88l.78-.78c.3.43.7.64,1.19.64.42,0,.63-.17.63-.51,0-.13-.03-.23-.1-.31s-.17-.12-.33-.16l-.5-.09c-.53-.1-.92-.27-1.15-.5-.24-.24-.35-.57-.35-1,0-.52.15-.92.46-1.18.31-.27.76-.4,1.35-.4.4,0,.74.06,1.03.18s.55.31.77.56l-.75.77c-.28-.33-.63-.5-1.04-.5-.38,0-.57.17-.57.51,0,.14.03.24.1.31.07.07.18.12.34.15l.52.09c.52.09.9.25,1.13.48.23.22.34.54.34.96,0,.53-.17.94-.5,1.23-.33.29-.8.43-1.4.43Z"/><path d="m76.13,47.8c-.68,0-1.22-.22-1.63-.65-.41-.43-.61-1.08-.61-1.94s.18-1.53.53-1.96c.35-.42.88-.64,1.57-.64s1.21.21,1.57.63.53,1.07.53,1.95v.32h-2.83v.31c0,.28.08.5.25.66s.4.25.7.25c.25,0,.45-.05.63-.16.17-.11.33-.26.48-.46l.67.79c-.2.27-.46.49-.77.64-.31.16-.68.24-1.1.24Zm-.13-4.18c-.48,0-.73.28-.73.84v.3h1.45v-.3c0-.56-.24-.84-.73-.84Z"/><path d="m79.3,47.69v-4.95h1.32v1.06h.15c.02-.14.05-.27.09-.4.04-.13.1-.24.18-.34.08-.1.18-.17.3-.23.12-.06.26-.08.42-.08h.24v1.34h-.34c-.36,0-.62.05-.79.15-.17.1-.25.29-.25.57v2.88h-1.32Z"/><path d="m83.09,47.69v-4.95h1.32v1.06h.15c.02-.14.05-.27.09-.4.04-.13.1-.24.18-.34.08-.1.18-.17.3-.23.12-.06.26-.08.42-.08h.24v1.34h-.34c-.36,0-.62.05-.79.15-.17.1-.25.29-.25.57v2.88h-1.32Z"/><path d="m88.78,47.8c-.68,0-1.22-.22-1.63-.65-.41-.43-.61-1.08-.61-1.94s.18-1.53.53-1.96c.35-.42.88-.64,1.57-.64s1.21.21,1.57.63.53,1.07.53,1.95v.32h-2.83v.31c0,.28.08.5.25.66s.4.25.7.25c.25,0,.45-.05.63-.16.17-.11.33-.26.48-.46l.67.79c-.2.27-.46.49-.77.64-.31.16-.68.24-1.1.24Zm-.13-4.18c-.48,0-.73.28-.73.84v.3h1.45v-.3c0-.56-.24-.84-.73-.84Z"/><path class="cls-1" d="m26.07,55.7h.75v.62h.09c.06-.22.18-.4.34-.52s.36-.19.58-.19c.45,0,.78.17,1,.51.22.34.33.83.33,1.47s-.11,1.13-.33,1.47-.56.51-1,.51c-.22,0-.42-.06-.58-.19s-.28-.3-.34-.52h-.09v2.08h-.75v-5.25Zm1.49,3.24c.26,0,.46-.08.6-.24.14-.16.21-.39.21-.68v-.85c0-.29-.07-.52-.21-.68s-.34-.24-.6-.24c-.21,0-.39.06-.53.17s-.21.27-.21.46v1.43c0,.19.07.35.21.46s.31.17.53.17Z"/><path class="cls-1" d="m31.61,59.58c-.24,0-.46-.04-.66-.12s-.37-.2-.51-.36c-.14-.16-.25-.37-.33-.62-.08-.25-.12-.54-.12-.89s.04-.64.11-.89.18-.46.32-.62c.14-.16.3-.28.5-.36.19-.08.41-.12.65-.12.48,0,.86.16,1.13.47.27.32.4.82.4,1.51v.19h-2.32v.24c0,.3.08.53.23.69s.36.24.63.24c.23,0,.42-.05.57-.15.15-.1.27-.25.38-.43l.44.42c-.14.24-.32.43-.55.57-.23.14-.52.21-.86.21Zm-.04-3.37c-.25,0-.45.08-.58.23s-.2.38-.2.69v.15h1.52v-.15c0-.61-.25-.92-.74-.92Z"/><path class="cls-1" d="m36.19,58.86h-.09c-.15.48-.46.71-.94.71-.34,0-.6-.12-.78-.35-.19-.23-.28-.57-.28-1.02v-2.52h.75v2.42c0,.55.21.82.64.82.19,0,.36-.06.5-.18.14-.12.21-.29.21-.5v-2.56h.75v3.79h-.75v-.63Z"/><path class="cls-1" d="m42.16,58.87h-.09c-.06.22-.18.4-.34.52-.16.12-.36.19-.58.19-.45,0-.79-.17-1.01-.51s-.33-.83-.33-1.47.11-1.13.33-1.47c.22-.34.55-.51,1.01-.51.22,0,.42.06.58.19.16.12.28.3.34.52h.09v-2.23h.75v5.4h-.75v-.62Zm-.74.07c.21,0,.39-.06.53-.17s.21-.27.21-.46v-1.43c0-.19-.07-.35-.21-.46s-.31-.17-.53-.17c-.26,0-.46.08-.6.24-.14.16-.21.39-.21.68v.85c0,.29.07.52.21.68.14.16.34.24.6.24Z"/><path class="cls-1" d="m44.64,54.04c.17,0,.3.04.38.11.08.08.12.18.12.32v.15c0,.23-.06.46-.18.7-.12.24-.28.45-.49.62h-.53c.14-.15.26-.3.35-.44.09-.14.16-.3.21-.47-.24-.04-.36-.18-.36-.41v-.15c0-.14.04-.24.12-.32.08-.08.21-.11.38-.11Z"/><path class="cls-1" d="m47.15,59.58c-.24,0-.46-.04-.66-.12s-.37-.2-.51-.36c-.14-.16-.25-.37-.33-.62-.08-.25-.12-.54-.12-.89s.04-.64.11-.89.18-.46.32-.62c.14-.16.3-.28.5-.36.19-.08.41-.12.65-.12.48,0,.86.16,1.13.47.27.32.4.82.4,1.51v.19h-2.32v.24c0,.3.08.53.23.69s.36.24.63.24c.23,0,.42-.05.57-.15.15-.1.27-.25.38-.43l.44.42c-.14.24-.32.43-.55.57-.23.14-.52.21-.86.21Zm-.04-3.37c-.25,0-.45.08-.58.23s-.2.38-.2.69v.15h1.52v-.15c0-.61-.25-.92-.74-.92Zm.08-.96l-.46-.23.61-1.33.66.34-.81,1.22Z"/><path class="cls-1" d="m49.68,59.49v-3.79h.75v.63h.09c.15-.48.45-.71.91-.71s.79.24.94.73h.08c.08-.25.2-.43.37-.55.17-.12.38-.18.64-.18.33,0,.58.12.76.35.18.23.27.57.27,1.02v2.52h-.75v-2.42c0-.27-.05-.47-.15-.61-.1-.14-.25-.21-.46-.21-.19,0-.34.06-.48.18s-.2.29-.2.5v2.56h-.75v-2.42c0-.27-.05-.47-.15-.61-.1-.14-.25-.21-.46-.21-.19,0-.35.06-.48.18s-.2.29-.2.5v2.56h-.75Z"/><path class="cls-1" d="m56.13,54.98c-.3,0-.45-.13-.45-.39v-.13c0-.26.15-.39.45-.39s.45.13.45.39v.13c0,.26-.15.39-.45.39Zm-.37.72h.75v3.79h-.75v-3.79Z"/><path class="cls-1" d="m58.89,59.58c-.32,0-.59-.06-.82-.18-.23-.12-.43-.29-.6-.52l.48-.44c.13.18.26.32.42.41s.33.14.53.14.35-.05.46-.14.16-.22.16-.4c0-.14-.03-.25-.1-.33-.07-.08-.19-.14-.37-.18l-.33-.06c-.38-.07-.67-.19-.85-.36-.18-.17-.27-.42-.27-.76,0-.39.11-.68.34-.87.23-.19.54-.28.94-.28.29,0,.54.05.75.15.21.1.39.24.54.43l-.45.44c-.1-.14-.23-.25-.37-.32-.14-.07-.3-.11-.46-.11-.38,0-.57.17-.57.52,0,.15.04.27.12.34.08.07.2.13.37.15l.34.07c.39.07.67.19.84.36.17.17.25.41.25.71,0,.38-.12.68-.35.9s-.57.32-1,.32Z"/><path class="cls-1" d="m62.34,59.58c-.32,0-.59-.06-.82-.18-.23-.12-.43-.29-.6-.52l.48-.44c.13.18.26.32.42.41s.33.14.53.14.35-.05.46-.14.16-.22.16-.4c0-.14-.03-.25-.1-.33-.07-.08-.19-.14-.37-.18l-.33-.06c-.38-.07-.67-.19-.85-.36-.18-.17-.27-.42-.27-.76,0-.39.11-.68.34-.87.23-.19.54-.28.94-.28.29,0,.54.05.75.15.21.1.39.24.54.43l-.45.44c-.1-.14-.23-.25-.37-.32-.14-.07-.3-.11-.46-.11-.38,0-.57.17-.57.52,0,.15.04.27.12.34.08.07.2.13.37.15l.34.07c.39.07.67.19.84.36.17.17.25.41.25.71,0,.38-.12.68-.35.9s-.57.32-1,.32Z"/><path class="cls-1" d="m65.12,54.98c-.3,0-.45-.13-.45-.39v-.13c0-.26.15-.39.45-.39s.45.13.45.39v.13c0,.26-.15.39-.45.39Zm-.37.72h.75v3.79h-.75v-3.79Z"/><path class="cls-1" d="m68.11,59.58c-.24,0-.46-.04-.65-.12-.19-.08-.36-.2-.5-.36s-.24-.37-.32-.62-.11-.55-.11-.89.04-.64.11-.89.18-.46.32-.62c.14-.16.3-.28.5-.36.19-.08.41-.12.65-.12s.45.04.65.12c.19.08.36.2.5.36.14.16.24.37.32.62.07.25.11.55.11.89s-.04.64-.11.89c-.07.25-.18.46-.32.62-.14.16-.31.28-.5.36-.19.08-.41.12-.65.12Zm0-.63c.25,0,.45-.08.58-.23.13-.15.2-.38.2-.69v-.89c0-.31-.07-.54-.2-.69-.13-.15-.33-.23-.58-.23s-.45.08-.58.23c-.13.15-.2.38-.2.69v.89c0,.31.07.54.2.69.13.15.33.23.58.23Z"/><path class="cls-1" d="m70.72,59.49v-3.79h.75v.63h.09c.15-.48.46-.71.93-.71.34,0,.6.12.79.35.19.23.28.57.28,1.02v2.52h-.75v-2.42c0-.27-.05-.47-.15-.61-.1-.14-.26-.21-.48-.21-.2,0-.37.06-.5.18s-.2.29-.2.5v2.56h-.75Z"/><path class="cls-1" d="m75.92,59.58c-.32,0-.59-.06-.82-.18-.23-.12-.43-.29-.6-.52l.48-.44c.13.18.26.32.42.41s.33.14.53.14.35-.05.46-.14.16-.22.16-.4c0-.14-.03-.25-.1-.33-.07-.08-.19-.14-.37-.18l-.33-.06c-.38-.07-.67-.19-.85-.36-.18-.17-.27-.42-.27-.76,0-.39.11-.68.34-.87.23-.19.54-.28.94-.28.29,0,.54.05.75.15.21.1.39.24.54.43l-.45.44c-.1-.14-.23-.25-.37-.32-.14-.07-.3-.11-.46-.11-.38,0-.57.17-.57.52,0,.15.04.27.12.34.08.07.2.13.37.15l.34.07c.39.07.67.19.84.36.17.17.25.41.25.71,0,.38-.12.68-.35.9s-.57.32-1,.32Z"/><path class="cls-1" d="m82.25,58.87h-.09c-.06.22-.18.4-.34.52-.16.12-.36.19-.58.19-.45,0-.79-.17-1.01-.51s-.33-.83-.33-1.47.11-1.13.33-1.47c.22-.34.55-.51,1.01-.51.22,0,.42.06.58.19.16.12.28.3.34.52h.09v-2.23h.75v5.4h-.75v-.62Zm-.74.07c.21,0,.39-.06.53-.17s.21-.27.21-.46v-1.43c0-.19-.07-.35-.21-.46s-.31-.17-.53-.17c-.26,0-.46.08-.6.24-.14.16-.21.39-.21.68v.85c0,.29.07.52.21.68.14.16.34.24.6.24Z"/><path class="cls-1" d="m85.66,59.58c-.24,0-.46-.04-.66-.12s-.37-.2-.51-.36c-.14-.16-.25-.37-.33-.62-.08-.25-.12-.54-.12-.89s.04-.64.11-.89.18-.46.32-.62c.14-.16.3-.28.5-.36.19-.08.41-.12.65-.12.48,0,.86.16,1.13.47.27.32.4.82.4,1.51v.19h-2.32v.24c0,.3.08.53.23.69s.36.24.63.24c.23,0,.42-.05.57-.15.15-.1.27-.25.38-.43l.44.42c-.14.24-.32.43-.55.57-.23.14-.52.21-.86.21Zm-.04-3.37c-.25,0-.45.08-.58.23s-.2.38-.2.69v.15h1.52v-.15c0-.61-.25-.92-.74-.92Z"/><path class="cls-1" d="m27.84,68.33c-.3,0-.56-.05-.8-.15-.24-.1-.44-.26-.61-.47-.17-.21-.3-.49-.39-.82-.09-.33-.14-.73-.14-1.19s.04-.86.14-1.19c.09-.33.22-.61.39-.82.17-.21.37-.37.61-.47.24-.1.5-.15.8-.15.43,0,.78.09,1.04.28.26.19.47.47.62.85l-.66.36c-.09-.29-.21-.49-.37-.62s-.37-.19-.64-.19c-.35,0-.61.12-.81.36-.19.24-.29.56-.29.98v1.22c0,.42.1.74.29.98.19.24.46.36.81.36.27,0,.49-.07.66-.2.17-.14.3-.35.39-.66l.64.38c-.16.38-.37.66-.64.86s-.62.3-1.05.3Z"/><path class="cls-1" d="m32.26,68.33c-.31,0-.58-.05-.82-.15s-.45-.26-.62-.47c-.17-.21-.3-.49-.39-.82-.09-.33-.14-.73-.14-1.19s.04-.86.14-1.19c.09-.33.22-.61.39-.82.17-.21.38-.37.62-.47s.52-.15.82-.15.58.05.82.15c.24.1.45.26.62.47.17.21.3.49.39.82.09.33.13.73.13,1.19s-.04.86-.13,1.19c-.09.33-.22.61-.39.82-.17.21-.38.37-.62.47-.24.1-.52.15-.82.15Zm0-.69c.36,0,.65-.12.85-.35.2-.24.3-.56.3-.98v-1.23c0-.42-.1-.75-.3-.98-.2-.24-.48-.35-.85-.35s-.65.12-.85.35c-.2.24-.3.56-.3.98v1.23c0,.42.1.75.3.98.2.24.48.35.85.35Z"/><path class="cls-1" d="m36.63,68.25h-1.56v-.38l.74-.75c.12-.13.21-.24.27-.34s.08-.2.08-.3v-.11c0-.25-.12-.38-.35-.38-.11,0-.2.03-.28.1-.07.07-.12.16-.15.28l-.34-.13c.06-.19.15-.33.29-.44.14-.1.3-.15.5-.15.26,0,.45.06.57.19s.17.31.17.54c0,.09,0,.16-.02.24-.02.07-.04.14-.08.22-.04.07-.09.15-.16.23-.07.08-.15.17-.25.27l-.57.58h1.15v.33Z"/><path d="m27.45,174.3c-.24,0-.46-.04-.66-.12-.2-.08-.37-.2-.51-.36s-.25-.37-.33-.62c-.08-.25-.12-.54-.12-.89s.04-.64.11-.89c.07-.25.18-.46.32-.62s.3-.28.5-.36c.19-.08.41-.12.65-.12.48,0,.86.16,1.13.47.27.32.4.82.4,1.51v.19h-2.32v.24c0,.3.08.53.23.69.15.16.36.24.63.24.23,0,.42-.05.57-.15.15-.1.27-.25.38-.43l.44.42c-.14.24-.32.43-.55.57s-.52.21-.86.21Zm-.04-3.37c-.25,0-.45.08-.58.23s-.2.38-.2.69v.15h1.52v-.15c0-.61-.25-.92-.74-.92Zm.08-.96l-.46-.23.61-1.33.66.33-.81,1.22Z"/><path d="m29.98,174.21v-3.79h.75v.63h.09c.15-.48.45-.71.91-.71s.79.24.94.73h.08c.08-.25.2-.43.37-.55.17-.12.38-.18.64-.18.33,0,.58.12.76.35.18.23.27.57.27,1.02v2.52h-.75v-2.42c0-.27-.05-.47-.15-.61-.1-.14-.25-.21-.46-.21-.19,0-.34.06-.48.18s-.2.29-.2.5v2.56h-.75v-2.42c0-.27-.05-.47-.15-.61-.1-.14-.25-.21-.46-.21-.19,0-.35.06-.48.18s-.2.29-.2.5v2.56h-.75Z"/><path d="m36.42,169.7c-.3,0-.45-.13-.45-.39v-.13c0-.26.15-.39.45-.39s.45.13.45.39v.13c0,.26-.15.39-.45.39Zm-.37.72h.75v3.79h-.75v-3.79Z"/><path d="m39.19,174.3c-.32,0-.59-.06-.82-.18-.23-.12-.43-.29-.6-.52l.48-.44c.13.18.26.32.42.41s.33.14.53.14.35-.05.46-.14.16-.22.16-.4c0-.14-.03-.25-.1-.33-.07-.08-.19-.14-.37-.18l-.33-.06c-.38-.07-.67-.19-.85-.36-.18-.17-.27-.42-.27-.76,0-.39.11-.68.34-.87.23-.19.54-.28.94-.28.29,0,.54.05.75.15.21.1.39.24.54.43l-.45.44c-.1-.14-.23-.25-.37-.32-.14-.07-.3-.11-.46-.11-.38,0-.57.17-.57.52,0,.15.04.27.12.34.08.07.2.13.37.16l.34.07c.39.07.67.19.84.36.17.17.25.41.25.71,0,.38-.12.68-.35.9s-.57.32-1,.32Z"/><path d="m42.64,174.3c-.32,0-.59-.06-.82-.18-.23-.12-.43-.29-.6-.52l.48-.44c.13.18.26.32.42.41s.33.14.53.14.35-.05.46-.14.16-.22.16-.4c0-.14-.03-.25-.1-.33-.07-.08-.19-.14-.37-.18l-.33-.06c-.38-.07-.67-.19-.85-.36-.18-.17-.27-.42-.27-.76,0-.39.11-.68.34-.87.23-.19.54-.28.94-.28.29,0,.54.05.75.15.21.1.39.24.54.43l-.45.44c-.1-.14-.23-.25-.37-.32-.14-.07-.3-.11-.46-.11-.38,0-.57.17-.57.52,0,.15.04.27.12.34.08.07.2.13.37.16l.34.07c.39.07.67.19.84.36.17.17.25.41.25.71,0,.38-.12.68-.35.9s-.57.32-1,.32Z"/><path d="m45.42,169.7c-.3,0-.45-.13-.45-.39v-.13c0-.26.15-.39.45-.39s.45.13.45.39v.13c0,.26-.15.39-.45.39Zm-.37.72h.75v3.79h-.75v-3.79Z"/><path d="m48.41,174.3c-.24,0-.46-.04-.65-.12-.19-.08-.36-.2-.5-.36-.14-.16-.24-.37-.32-.62-.07-.25-.11-.55-.11-.89s.04-.64.11-.89c.07-.25.18-.46.32-.62s.3-.28.5-.36c.19-.08.41-.12.65-.12s.45.04.65.12c.19.08.36.2.5.36.14.16.24.37.32.62.07.25.11.55.11.89s-.04.64-.11.89c-.07.25-.18.46-.32.62-.14.16-.31.28-.5.36-.19.08-.41.12-.65.12Zm0-.63c.25,0,.45-.08.58-.23.13-.15.2-.38.2-.69v-.89c0-.31-.07-.54-.2-.69-.13-.15-.33-.23-.58-.23s-.45.08-.58.23c-.13.15-.2.38-.2.69v.89c0,.31.07.54.2.69.13.15.33.23.58.23Z"/><path d="m51.02,174.21v-3.79h.75v.63h.09c.15-.48.46-.71.93-.71.34,0,.6.12.79.35.19.23.28.57.28,1.02v2.52h-.75v-2.42c0-.27-.05-.47-.15-.61-.1-.14-.26-.21-.48-.21-.2,0-.37.06-.5.18s-.2.29-.2.5v2.56h-.75Z"/><path d="m56.21,174.3c-.32,0-.59-.06-.82-.18-.23-.12-.43-.29-.6-.52l.48-.44c.13.18.26.32.42.41s.33.14.53.14.35-.05.46-.14.16-.22.16-.4c0-.14-.03-.25-.1-.33-.07-.08-.19-.14-.37-.18l-.33-.06c-.38-.07-.67-.19-.85-.36-.18-.17-.27-.42-.27-.76,0-.39.11-.68.34-.87.23-.19.54-.28.94-.28.29,0,.54.05.75.15.21.1.39.24.54.43l-.45.44c-.1-.14-.23-.25-.37-.32-.14-.07-.3-.11-.46-.11-.38,0-.57.17-.57.52,0,.15.04.27.12.34.08.07.2.13.37.16l.34.07c.39.07.67.19.84.36.17.17.25.41.25.71,0,.38-.12.68-.35.9s-.57.32-1,.32Z"/><path d="m62.55,173.59h-.09c-.06.22-.18.4-.34.52-.16.12-.36.19-.58.19-.45,0-.79-.17-1.01-.51s-.33-.83-.33-1.47.11-1.13.33-1.47.55-.51,1.01-.51c.22,0,.42.06.58.19.16.12.28.3.34.52h.09v-2.23h.75v5.4h-.75v-.62Zm-.74.07c.21,0,.39-.06.53-.17.14-.11.21-.26.21-.46v-1.43c0-.19-.07-.35-.21-.46-.14-.11-.31-.17-.53-.17-.26,0-.46.08-.6.24-.14.16-.21.39-.21.68v.85c0,.29.07.52.21.68.14.16.34.24.6.24Z"/><path d="m65.95,174.3c-.24,0-.46-.04-.66-.12-.2-.08-.37-.2-.51-.36s-.25-.37-.33-.62c-.08-.25-.12-.54-.12-.89s.04-.64.11-.89c.07-.25.18-.46.32-.62s.3-.28.5-.36c.19-.08.41-.12.65-.12.48,0,.86.16,1.13.47.27.32.4.82.4,1.51v.19h-2.32v.24c0,.3.08.53.23.69.15.16.36.24.63.24.23,0,.42-.05.57-.15.15-.1.27-.25.38-.43l.44.42c-.14.24-.32.43-.55.57s-.52.21-.86.21Zm-.04-3.37c-.25,0-.45.08-.58.23s-.2.38-.2.69v.15h1.52v-.15c0-.61-.25-.92-.74-.92Z"/><path d="m72.06,174.3c-.3,0-.56-.05-.8-.15-.24-.1-.44-.26-.61-.47-.17-.21-.3-.49-.39-.82-.09-.33-.14-.73-.14-1.19s.04-.86.14-1.19c.09-.33.22-.61.39-.82.17-.21.37-.37.61-.47.24-.1.5-.15.8-.15.43,0,.78.09,1.04.28.26.19.47.47.62.85l-.66.36c-.09-.29-.21-.49-.37-.62-.16-.13-.37-.19-.64-.19-.35,0-.61.12-.81.36-.19.24-.29.56-.29.98v1.22c0,.42.1.74.29.98.19.24.46.36.81.36.27,0,.49-.07.66-.2s.3-.36.39-.66l.64.38c-.16.38-.37.66-.64.87-.27.2-.62.3-1.05.3Z"/><path d="m76.48,174.3c-.31,0-.58-.05-.82-.15s-.45-.26-.62-.47c-.17-.21-.3-.49-.39-.82-.09-.33-.14-.73-.14-1.19s.04-.86.14-1.19c.09-.33.22-.61.39-.82.17-.21.38-.37.62-.47s.52-.15.82-.15.58.05.82.15c.24.1.45.26.62.47.17.21.3.49.39.82s.13.73.13,1.19-.04.86-.13,1.19-.22.61-.39.82c-.17.21-.38.37-.62.47-.24.1-.52.15-.82.15Zm0-.69c.36,0,.65-.12.85-.35.2-.24.3-.56.3-.98v-1.23c0-.42-.1-.75-.3-.98-.2-.24-.48-.35-.85-.35s-.65.12-.85.35c-.2.24-.3.56-.3.98v1.23c0,.42.1.75.3.98.2.24.48.35.85.35Z"/><path d="m80.85,174.21h-1.56v-.38l.74-.75c.12-.13.21-.24.27-.34s.08-.2.08-.3v-.11c0-.25-.12-.38-.35-.38-.11,0-.2.03-.28.1s-.12.16-.15.29l-.34-.13c.06-.19.15-.33.29-.44.14-.1.3-.15.5-.15.26,0,.45.06.57.19.12.13.17.3.17.54,0,.08,0,.16-.02.24-.02.07-.04.14-.08.21-.04.07-.09.15-.16.23-.07.08-.15.17-.25.27l-.57.58h1.15v.33Z"/><path d="m27,182.97c-.26,0-.45-.06-.57-.18-.12-.12-.18-.31-.18-.57v-2.43h-.52v-.62h.29c.12,0,.2-.03.24-.08.04-.06.06-.14.06-.27v-.69h.68v1.04h.71v.62h-.71v2.55h.66v.62h-.66Z"/><path d="m28.72,182.97v-3.79h.75v.75h.09c.05-.24.15-.43.3-.56s.34-.19.57-.19h.19v.77h-.32c-.27,0-.47.05-.61.15-.14.1-.21.27-.21.49v2.39h-.75Z"/><path d="m32.86,183.06c-.24,0-.46-.04-.66-.12-.2-.08-.37-.2-.51-.36s-.25-.37-.33-.62c-.08-.25-.12-.54-.12-.89s.04-.64.11-.89c.07-.25.18-.46.32-.62s.3-.28.5-.36c.19-.08.41-.12.65-.12.48,0,.86.16,1.13.47.27.32.4.82.4,1.51v.19h-2.32v.24c0,.3.08.53.23.69.15.16.36.24.63.24.23,0,.42-.05.57-.15.15-.1.27-.25.38-.43l.44.42c-.14.24-.32.43-.55.57s-.52.21-.86.21Zm-.92-5.55l.66-.33.61,1.33-.46.23-.81-1.22Zm.88,2.18c-.25,0-.45.08-.58.23s-.2.38-.2.69v.15h1.52v-.15c0-.61-.25-.92-.74-.92Z"/><path d="m36.5,183.06c-.32,0-.59-.06-.82-.18-.23-.12-.43-.29-.6-.52l.48-.44c.13.18.26.32.42.41s.33.14.53.14.35-.05.46-.14.16-.22.16-.4c0-.14-.03-.25-.1-.33-.07-.08-.19-.14-.37-.18l-.33-.06c-.38-.07-.67-.19-.85-.36-.18-.17-.27-.42-.27-.76,0-.39.11-.68.34-.87.23-.19.54-.28.94-.28.29,0,.54.05.75.15.21.1.39.24.54.43l-.45.44c-.1-.14-.23-.25-.37-.32-.14-.07-.3-.11-.46-.11-.38,0-.57.17-.57.52,0,.15.04.27.12.34.08.07.2.13.37.16l.34.07c.39.07.67.19.84.36.17.17.25.41.25.71,0,.38-.12.68-.35.9s-.57.32-1,.32Z"/><path d="m41.08,178.45c-.3,0-.45-.13-.45-.39v-.13c0-.26.15-.39.45-.39s.45.13.45.39v.13c0,.26-.15.39-.45.39Zm-.37.72h.75v3.79h-.75v-3.79Z"/><path d="m42.74,182.97v-3.79h.75v.63h.09c.15-.48.45-.71.91-.71s.79.24.94.73h.08c.08-.25.2-.43.37-.55.17-.12.38-.18.64-.18.33,0,.58.12.76.35.18.23.27.57.27,1.02v2.52h-.75v-2.42c0-.27-.05-.47-.15-.61-.1-.14-.25-.21-.46-.21-.19,0-.34.06-.48.18s-.2.29-.2.5v2.56h-.75v-2.42c0-.27-.05-.47-.15-.61-.1-.14-.25-.21-.46-.21-.19,0-.35.06-.48.18s-.2.29-.2.5v2.56h-.75Z"/><path d="m48.8,179.17h.75v.62h.09c.06-.22.18-.4.34-.52s.36-.19.58-.19c.45,0,.78.17,1,.51s.33.83.33,1.47-.11,1.13-.33,1.47-.56.51-1,.51c-.22,0-.42-.06-.58-.19s-.28-.3-.34-.52h-.09v2.08h-.75v-5.25Zm1.49,3.24c.26,0,.46-.08.6-.24.14-.16.21-.39.21-.68v-.85c0-.29-.07-.52-.21-.68-.14-.16-.34-.24-.6-.24-.21,0-.39.06-.53.17-.14.11-.21.26-.21.46v1.43c0,.2.07.35.21.46.14.11.31.17.53.17Z"/><path d="m54.29,183.06c-.24,0-.46-.04-.65-.12-.19-.08-.36-.2-.5-.36-.14-.16-.24-.37-.32-.62-.07-.25-.11-.55-.11-.89s.04-.64.11-.89c.07-.25.18-.46.32-.62s.3-.28.5-.36c.19-.08.41-.12.65-.12s.45.04.65.12c.19.08.36.2.5.36.14.16.24.37.32.62.07.25.11.55.11.89s-.04.64-.11.89c-.07.25-.18.46-.32.62-.14.16-.31.28-.5.36-.19.08-.41.12-.65.12Zm0-.63c.25,0,.45-.08.58-.23.13-.15.2-.38.2-.69v-.89c0-.31-.07-.54-.2-.69-.13-.15-.33-.23-.58-.23s-.45.08-.58.23c-.13.15-.2.38-.2.69v.89c0,.31.07.54.2.69.13.15.33.23.58.23Z"/><path d="m56.91,182.97v-3.79h.75v.75h.09c.05-.24.15-.43.3-.56s.34-.19.57-.19h.19v.77h-.32c-.27,0-.47.05-.61.15-.14.1-.21.27-.21.49v2.39h-.75Z"/><path d="m60.7,182.97c-.26,0-.45-.06-.57-.18-.12-.12-.18-.31-.18-.57v-2.43h-.52v-.62h.29c.12,0,.2-.03.24-.08.04-.06.06-.14.06-.27v-.69h.68v1.04h.71v.62h-.71v2.55h.66v.62h-.66Z"/><path d="m64.85,182.97c-.18,0-.33-.05-.43-.15-.1-.1-.15-.26-.15-.48h-.09c-.05.23-.16.41-.33.53-.17.13-.37.19-.62.19-.36,0-.63-.1-.81-.29-.18-.19-.27-.46-.27-.81,0-.38.12-.67.36-.87.24-.2.6-.3,1.07-.3h.63v-.37c0-.24-.05-.42-.16-.54-.11-.11-.28-.17-.51-.17-.18,0-.33.04-.46.12-.13.08-.25.21-.35.39l-.44-.41c.13-.21.3-.39.51-.52.22-.14.48-.21.8-.21.46,0,.8.11,1.03.33.23.22.34.55.34.97v1.96h.36v.62h-.48Zm-1.37-.5c.11,0,.21-.02.3-.05.09-.03.17-.08.23-.14.07-.06.12-.13.16-.21.04-.08.06-.17.06-.26v-.53h-.59c-.47,0-.71.17-.71.51v.18c0,.17.05.29.15.38.1.08.23.12.4.12Z"/><path d="m66.3,182.97v-3.79h.75v.63h.09c.15-.48.46-.71.93-.71.34,0,.6.12.79.35.19.23.28.57.28,1.02v2.52h-.75v-2.42c0-.27-.05-.47-.15-.61-.1-.14-.26-.21-.48-.21-.2,0-.37.06-.5.18s-.2.29-.2.5v2.56h-.75Z"/><path d="m71.31,182.97c-.26,0-.45-.06-.57-.18-.12-.12-.18-.31-.18-.57v-2.43h-.52v-.62h.29c.12,0,.2-.03.24-.08.04-.06.06-.14.06-.27v-.69h.68v1.04h.71v.62h-.71v2.55h.66v.62h-.66Z"/><path d="m74.39,183.06c-.24,0-.46-.04-.66-.12-.2-.08-.37-.2-.51-.36s-.25-.37-.33-.62c-.08-.25-.12-.54-.12-.89s.04-.64.11-.89c.07-.25.18-.46.32-.62s.3-.28.5-.36c.19-.08.41-.12.65-.12.48,0,.86.16,1.13.47.27.32.4.82.4,1.51v.19h-2.32v.24c0,.3.08.53.23.69.15.16.36.24.63.24.23,0,.42-.05.57-.15.15-.1.27-.25.38-.43l.44.42c-.14.24-.32.43-.55.57s-.52.21-.86.21Zm-.04-3.37c-.25,0-.45.08-.58.23s-.2.38-.2.69v.15h1.52v-.15c0-.61-.25-.92-.74-.92Z"/><path d="m78.03,183.06c-.32,0-.59-.06-.82-.18-.23-.12-.43-.29-.6-.52l.48-.44c.13.18.26.32.42.41s.33.14.53.14.35-.05.46-.14.16-.22.16-.4c0-.14-.03-.25-.1-.33-.07-.08-.19-.14-.37-.18l-.33-.06c-.38-.07-.67-.19-.85-.36-.18-.17-.27-.42-.27-.76,0-.39.11-.68.34-.87.23-.19.54-.28.94-.28.29,0,.54.05.75.15.21.1.39.24.54.43l-.45.44c-.1-.14-.23-.25-.37-.32-.14-.07-.3-.11-.46-.11-.38,0-.57.17-.57.52,0,.15.04.27.12.34.08.07.2.13.37.16l.34.07c.39.07.67.19.84.36.17.17.25.41.25.71,0,.38-.12.68-.35.9s-.57.32-1,.32Z"/></svg>